<?xml version="1.0" encoding="UTF-8" standalone="no"?>
<!-- Created with Inkscape (http://www.inkscape.org/) -->

<svg
   xmlns:dc="http://purl.org/dc/elements/1.1/"
   xmlns:cc="http://creativecommons.org/ns#"
   xmlns:rdf="http://www.w3.org/1999/02/22-rdf-syntax-ns#"
   xmlns:svg="http://www.w3.org/2000/svg"
   xmlns="http://www.w3.org/2000/svg"
   xmlns:sodipodi="http://sodipodi.sourceforge.net/DTD/sodipodi-0.dtd"
   xmlns:inkscape="http://www.inkscape.org/namespaces/inkscape"
   version="1.1"
   id="svg82"
   xml:space="preserve"
   width="226.91309"
   height="184.77206"
   viewBox="0 0 226.91308 184.77206"
   sodipodi:docname="DIKTAMO_LOGO.svg"
   inkscape:version="0.92.3 (2405546, 2018-03-11)"><metadata
     id="metadata88"><rdf:RDF><cc:Work
         rdf:about=""><dc:format>image/svg+xml</dc:format><dc:type
           rdf:resource="http://purl.org/dc/dcmitype/StillImage" /><dc:title></dc:title></cc:Work></rdf:RDF></metadata><defs
     id="defs86"><clipPath
       clipPathUnits="userSpaceOnUse"
       id="clipPath100"><path
         d="M 0,155.91 H 255.12 V 0 H 0 Z"
         id="path98"
         inkscape:connector-curvature="0" /></clipPath></defs><sodipodi:namedview
     pagecolor="#ffffff"
     bordercolor="#666666"
     borderopacity="1"
     objecttolerance="10"
     gridtolerance="10"
     guidetolerance="10"
     inkscape:pageopacity="0"
     inkscape:pageshadow="2"
     inkscape:window-width="1366"
     inkscape:window-height="705"
     id="namedview84"
     showgrid="false"
     fit-margin-top="0"
     fit-margin-left="0"
     fit-margin-right="0"
     fit-margin-bottom="0"
     inkscape:zoom="2.1594173"
     inkscape:cx="63.713949"
     inkscape:cy="89.117498"
     inkscape:window-x="-8"
     inkscape:window-y="-8"
     inkscape:window-maximized="1"
     inkscape:current-layer="g90" /><g
     id="g90"
     inkscape:groupmode="layer"
     inkscape:label="DIKTAMO_LOGO"
     transform="matrix(1.3333333,0,0,-1.3333333,-56.496723,196.34926)"><path
       d="M 0,0 H 255.12 V 155.911 H 0 Z"
       style="fill:#366928;fill-opacity:1;fill-rule:nonzero;stroke:none"
       id="path92"
       inkscape:connector-curvature="0" /><g
       id="g94"><g
         id="g96"
         clip-path="url(#clipPath100)"><g
           id="g102"
           transform="translate(190.4863,52.5664)"><path
             d="m 0,0 c -0.188,-0.147 -0.377,-0.294 -0.569,-0.439 -6.397,-4.824 -14.306,-8.551 -23.511,-9.244 -1.275,-0.096 -2.543,-0.144 -3.769,-0.144 -2.208,0 -4.272,0.151 -6.204,0.429 0.2,1.122 0.357,2.263 0.445,3.432 0.691,9.179 -1.729,15.473 -4.536,19.597 -0.093,0.14 -0.187,0.28 -0.283,0.414 0.09,0.063 0.182,0.123 0.271,0.187 0.257,0.184 0.51,0.371 0.756,0.563 4.562,3.558 7.22,8.444 7.22,10.594 0,2.15 -2.659,7.037 -7.221,10.595 -0.246,0.192 -0.499,0.38 -0.756,0.563 -0.088,0.064 -0.181,0.124 -0.271,0.186 0.096,0.135 0.19,0.275 0.284,0.414 2.806,4.125 5.225,10.419 4.536,19.597 -0.088,1.169 -0.245,2.311 -0.445,3.433 1.93,0.278 3.993,0.428 6.201,0.428 1.227,0 2.496,-0.048 3.772,-0.144 9.205,-0.692 17.114,-4.419 23.511,-9.242 C -0.378,51.075 -0.189,50.928 0,50.781 0.185,50.638 0.373,50.499 0.555,50.354 11.654,41.52 17.864,29.538 17.864,25.391 17.864,21.244 11.654,9.262 0.555,0.426 0.374,0.282 0.186,0.143 0,0 m -125.853,50.778 c 0.189,0.147 0.377,0.294 0.569,0.438 6.396,4.825 14.305,8.552 23.512,9.243 1.276,0.097 2.545,0.145 3.771,0.145 2.207,0 4.27,-0.151 6.199,-0.428 -0.2,-1.122 -0.356,-2.263 -0.444,-3.432 -0.69,-9.18 1.73,-15.473 4.536,-19.598 0.095,-0.139 0.189,-0.279 0.285,-0.414 -0.091,-0.062 -0.182,-0.123 -0.272,-0.187 -0.257,-0.183 -0.51,-0.37 -0.755,-0.563 -4.563,-3.558 -7.221,-8.444 -7.221,-10.593 0,-2.15 2.658,-7.036 7.221,-10.595 0.246,-0.192 0.499,-0.379 0.756,-0.563 0.089,-0.063 0.18,-0.124 0.271,-0.187 -0.096,-0.134 -0.19,-0.274 -0.285,-0.414 -2.806,-4.125 -5.225,-10.417 -4.534,-19.596 0.088,-1.162 0.243,-2.299 0.441,-3.415 -1.914,-0.283 -3.97,-0.447 -6.194,-0.447 h -0.004 c -1.228,0 -2.496,0.049 -3.771,0.145 -9.205,0.692 -17.114,4.417 -23.51,9.24 -0.192,0.145 -0.38,0.292 -0.57,0.439 -0.184,0.143 -0.373,0.282 -0.554,0.426 -11.1,8.835 -17.311,20.817 -17.311,24.965 0,4.148 6.21,16.13 17.31,24.965 0.18,0.144 0.369,0.284 0.554,0.426 M -64.631,19.04 c -0.192,0.051 -0.381,0.111 -0.567,0.18 -0.686,0.254 -1.321,0.613 -1.877,1.067 -0.36,0.292 -0.685,0.621 -0.976,0.982 -0.202,0.25 -0.382,0.517 -0.546,0.794 -0.132,0.224 -0.254,0.455 -0.358,0.695 -0.095,0.216 -0.181,0.435 -0.252,0.662 -0.013,0.042 -0.022,0.085 -0.033,0.126 -0.111,0.374 -0.191,0.76 -0.232,1.157 -0.023,0.226 -0.036,0.455 -0.036,0.686 0,0.233 0.013,0.462 0.036,0.688 0.036,0.342 0.099,0.676 0.186,1.001 0.087,0.324 0.198,0.639 0.33,0.942 0.074,0.168 0.152,0.333 0.239,0.493 0.007,0.013 0.016,0.027 0.023,0.04 0.029,0.055 0.065,0.107 0.097,0.161 0.164,0.278 0.344,0.545 0.546,0.795 0.291,0.361 0.617,0.691 0.977,0.984 0.553,0.45 1.18,0.806 1.859,1.059 0.191,0.071 0.386,0.134 0.584,0.187 0.189,0.051 0.381,0.094 0.577,0.128 0.147,0.026 0.293,0.052 0.443,0.068 0.225,0.023 0.454,0.036 0.684,0.036 0.233,0 0.46,-0.013 0.686,-0.036 0.149,-0.016 0.296,-0.043 0.442,-0.068 0.196,-0.034 0.388,-0.077 0.577,-0.128 0.199,-0.054 0.394,-0.116 0.584,-0.187 0.679,-0.254 1.308,-0.61 1.861,-1.06 0.359,-0.292 0.685,-0.622 0.975,-0.983 0.202,-0.25 0.382,-0.517 0.546,-0.795 0.132,-0.224 0.254,-0.454 0.36,-0.694 0.093,-0.216 0.179,-0.436 0.25,-0.663 0.013,-0.04 0.022,-0.081 0.033,-0.121 0.11,-0.375 0.191,-0.762 0.232,-1.161 0.024,-0.226 0.036,-0.454 0.036,-0.686 0,-0.232 -0.012,-0.461 -0.036,-0.687 -0.071,-0.685 -0.251,-1.338 -0.515,-1.944 -0.075,-0.169 -0.153,-0.334 -0.24,-0.495 -0.006,-0.011 -0.013,-0.021 -0.018,-0.033 -0.033,-0.057 -0.069,-0.11 -0.102,-0.167 -0.164,-0.277 -0.344,-0.544 -0.546,-0.794 -0.291,-0.361 -0.617,-0.691 -0.976,-0.983 -0.553,-0.45 -1.181,-0.807 -1.86,-1.06 -0.191,-0.071 -0.385,-0.133 -0.584,-0.186 -0.19,-0.052 -0.383,-0.095 -0.58,-0.129 -0.145,-0.025 -0.292,-0.052 -0.441,-0.067 -0.225,-0.024 -0.452,-0.036 -0.684,-0.036 -0.231,0 -0.46,0.013 -0.685,0.036 -0.147,0.015 -0.288,0.041 -0.431,0.066 -0.199,0.034 -0.395,0.078 -0.588,0.13 m -1.546,-1.927 c -0.15,-0.242 -0.315,-0.482 -0.496,-0.722 -0.018,-0.025 -0.036,-0.05 -0.054,-0.074 -0.15,-0.196 -0.309,-0.389 -0.48,-0.582 -0.113,-0.129 -0.22,-0.259 -0.343,-0.385 -0.467,-0.48 -1.061,-0.986 -1.786,-1.461 -0.402,-0.264 -0.844,-0.516 -1.331,-0.749 -1.85,-0.885 -4.329,-1.483 -7.572,-1.24 -2.505,0.189 -4.763,0.954 -6.742,2.037 -0.241,0.131 -0.477,0.268 -0.709,0.407 -0.042,0.026 -0.084,0.051 -0.127,0.076 -0.13,0.08 -0.257,0.164 -0.385,0.248 -0.135,0.087 -0.269,0.173 -0.4,0.263 -0.035,0.024 -0.069,0.048 -0.103,0.073 -4.961,3.432 -7.765,8.664 -7.765,10.385 0,1.721 2.804,6.953 7.765,10.384 0.034,0.025 0.068,0.049 0.102,0.073 0.132,0.09 0.266,0.176 0.401,0.263 0.128,0.084 0.255,0.168 0.385,0.248 0.042,0.025 0.085,0.05 0.127,0.076 0.232,0.14 0.468,0.276 0.709,0.407 1.979,1.082 4.237,1.848 6.742,2.036 0.504,0.038 0.99,0.056 1.462,0.056 2.495,0 4.506,-0.526 6.13,-1.321 0.484,-0.236 0.938,-0.492 1.352,-0.773 0.826,-0.557 1.514,-1.184 2.084,-1.837 0.14,-0.16 0.279,-0.32 0.405,-0.482 0.045,-0.059 0.083,-0.117 0.127,-0.175 0.18,-0.242 0.345,-0.483 0.494,-0.724 0.097,-0.157 0.196,-0.314 0.281,-0.469 0.089,-0.164 0.164,-0.322 0.241,-0.483 -0.277,-0.104 -0.548,-0.222 -0.809,-0.356 -0.258,-0.133 -0.51,-0.276 -0.752,-0.437 -0.308,-0.205 -0.598,-0.436 -0.874,-0.683 -0.674,-0.602 -1.251,-1.315 -1.682,-2.117 -0.117,-0.215 -0.223,-0.434 -0.32,-0.66 -0.086,-0.205 -0.161,-0.415 -0.229,-0.629 0,0 -0.001,-0.001 -0.001,-0.002 -0.089,-0.273 -0.166,-0.552 -0.224,-0.837 -0.072,-0.353 -0.111,-0.717 -0.134,-1.085 -0.008,-0.157 -0.023,-0.314 -0.023,-0.473 0,-0.159 0.015,-0.314 0.023,-0.47 0.023,-0.369 0.062,-0.733 0.134,-1.087 0.058,-0.285 0.135,-0.564 0.224,-0.837 0,-0.001 0.001,-0.003 0.001,-0.004 0.068,-0.214 0.143,-0.424 0.23,-0.628 0.096,-0.226 0.203,-0.446 0.319,-0.66 0.431,-0.802 1.007,-1.514 1.681,-2.116 0.276,-0.247 0.566,-0.478 0.875,-0.684 0.241,-0.16 0.494,-0.303 0.751,-0.436 0.272,-0.14 0.553,-0.261 0.841,-0.368 -0.069,-0.146 -0.144,-0.293 -0.223,-0.441 -0.098,-0.181 -0.208,-0.363 -0.322,-0.545 m 27.03,-2.109 c -0.035,-0.024 -0.069,-0.049 -0.104,-0.073 -0.131,-0.09 -0.265,-0.176 -0.399,-0.263 -0.128,-0.083 -0.255,-0.167 -0.385,-0.247 -0.042,-0.026 -0.085,-0.05 -0.127,-0.076 -0.232,-0.14 -0.468,-0.276 -0.708,-0.407 -1.981,-1.083 -4.237,-1.848 -6.742,-2.036 -0.503,-0.038 -0.991,-0.056 -1.461,-0.056 h -10e-4 c -2.496,0 -4.507,0.527 -6.13,1.321 -0.484,0.236 -0.937,0.492 -1.352,0.771 -0.826,0.558 -1.514,1.186 -2.086,1.839 -0.14,0.161 -0.28,0.321 -0.407,0.484 -0.044,0.057 -0.082,0.115 -0.125,0.173 -0.179,0.242 -0.345,0.483 -0.494,0.724 -0.097,0.157 -0.196,0.314 -0.281,0.469 -0.089,0.164 -0.164,0.323 -0.241,0.483 0.278,0.105 0.548,0.223 0.809,0.357 0.259,0.133 0.512,0.277 0.752,0.436 0.31,0.206 0.599,0.437 0.875,0.683 0.674,0.602 1.249,1.315 1.683,2.117 0.115,0.214 0.222,0.434 0.317,0.66 0.087,0.204 0.162,0.414 0.231,0.628 0.001,0.001 0.001,0.003 0.001,0.004 0.088,0.273 0.166,0.552 0.223,0.837 0.072,0.353 0.111,0.717 0.134,1.085 0.009,0.158 0.023,0.312 0.023,0.472 0,0.158 -0.014,0.314 -0.023,0.47 -0.023,0.369 -0.062,0.733 -0.134,1.086 -0.057,0.286 -0.135,0.565 -0.223,0.838 v 0.003 c -0.07,0.214 -0.145,0.424 -0.231,0.629 -0.096,0.226 -0.203,0.445 -0.318,0.66 -0.433,0.801 -1.008,1.514 -1.682,2.116 -0.276,0.246 -0.566,0.478 -0.875,0.684 -0.241,0.16 -0.494,0.303 -0.752,0.436 -0.261,0.134 -0.532,0.252 -0.809,0.357 0.076,0.16 0.151,0.319 0.24,0.482 0.085,0.155 0.184,0.313 0.281,0.47 0.149,0.241 0.315,0.483 0.494,0.725 0.043,0.057 0.081,0.115 0.125,0.173 0.127,0.162 0.267,0.322 0.407,0.483 0.572,0.653 1.258,1.28 2.084,1.838 0.414,0.28 0.869,0.536 1.353,0.772 1.623,0.795 3.635,1.322 6.132,1.322 0.47,0 0.958,-0.018 1.461,-0.056 2.504,-0.189 4.761,-0.954 6.741,-2.036 0.241,-0.131 0.476,-0.267 0.708,-0.407 0.042,-0.026 0.085,-0.05 0.127,-0.076 0.13,-0.08 0.257,-0.165 0.385,-0.248 0.134,-0.087 0.268,-0.173 0.399,-0.262 0.035,-0.024 0.069,-0.049 0.105,-0.074 4.96,-3.431 7.764,-8.664 7.764,-10.385 0,-1.721 -2.804,-6.953 -7.764,-10.385 m 10.115,73.341 c 10.75,0 20.429,-3.024 23.232,-5.826 2.933,-2.934 7.015,-15.797 5.413,-29.894 -6.087,4.458 -13.985,8.313 -23.602,9.036 -1.307,0.098 -2.607,0.148 -3.863,0.148 -2.291,0 -4.433,-0.158 -6.436,-0.45 -2.138,9.942 -8.427,17.918 -14.779,23.165 7.202,3.014 14.429,3.821 20.035,3.821 m -45.313,-3.596 c 4.825,3.619 9.345,5.565 11.418,5.565 2.073,0 6.592,-1.945 11.416,-5.564 0.182,-0.137 0.364,-0.268 0.546,-0.409 0.173,-0.133 0.347,-0.277 0.52,-0.414 6.28,-4.996 12.8,-12.769 14.969,-22.771 0.043,-0.199 0.095,-0.395 0.134,-0.596 0.038,-0.192 0.066,-0.39 0.101,-0.584 0.193,-1.084 0.346,-2.189 0.431,-3.323 0.691,-9.174 -1.823,-15.33 -4.628,-19.26 -2.339,1.428 -5.056,2.456 -8.083,2.684 -2.61,0.197 -4.78,-0.103 -6.598,-0.694 -0.306,-0.1 -0.6,-0.208 -0.886,-0.324 -0.331,-0.134 -0.661,-0.27 -0.966,-0.424 -1.092,-0.553 -2.006,-1.225 -2.777,-1.952 -0.206,-0.196 -0.401,-0.394 -0.587,-0.596 -0.198,-0.216 -0.392,-0.433 -0.566,-0.654 -0.377,-0.479 -0.7,-0.964 -0.973,-1.446 -0.187,-0.328 -0.354,-0.652 -0.495,-0.969 -0.353,0.071 -0.717,0.11 -1.085,0.132 -0.157,0.01 -0.314,0.024 -0.473,0.024 -0.159,0 -0.314,-0.014 -0.47,-0.023 -0.369,-0.022 -0.733,-0.062 -1.085,-0.133 h -0.001 c 0,0 -10e-4,10e-4 -10e-4,10e-4 -0.142,0.317 -0.309,0.642 -0.495,0.969 -0.274,0.481 -0.595,0.965 -0.972,1.443 -0.175,0.221 -0.368,0.437 -0.567,0.653 -0.185,0.203 -0.379,0.401 -0.586,0.597 -0.771,0.725 -1.683,1.397 -2.775,1.949 -0.305,0.154 -0.636,0.29 -0.967,0.425 -0.286,0.116 -0.58,0.224 -0.886,0.324 -1.819,0.591 -3.989,0.892 -6.598,0.697 -3.028,-0.227 -5.745,-1.256 -8.085,-2.684 -2.806,3.929 -5.32,10.086 -4.63,19.261 0.085,1.134 0.238,2.238 0.433,3.322 0.034,0.194 0.061,0.391 0.099,0.584 0.04,0.201 0.092,0.397 0.135,0.596 2.168,10.001 8.69,17.775 14.971,22.771 0.171,0.137 0.344,0.281 0.517,0.414 0.183,0.141 0.364,0.272 0.545,0.409 m -45.711,-2.233 c 2.802,2.802 12.483,5.827 23.236,5.827 5.603,0 12.832,-0.806 20.033,-3.82 -6.353,-5.247 -12.641,-13.223 -14.779,-23.165 -2.002,0.291 -4.145,0.45 -6.435,0.45 -1.256,0 -2.556,-0.05 -3.862,-0.148 -9.618,-0.723 -17.517,-4.578 -23.605,-9.038 -1.601,14.096 2.48,26.961 5.412,29.894 m 23.237,-120.082 c -10.751,0 -20.432,3.024 -23.234,5.825 -2.932,2.934 -7.013,15.798 -5.412,29.893 6.087,-4.458 13.986,-8.313 23.602,-9.035 1.304,-0.098 2.605,-0.148 3.862,-0.149 h 0.004 c 2.308,0 4.442,0.172 6.429,0.468 2.133,-9.95 8.425,-17.933 14.782,-23.183 -7.201,-3.013 -14.429,-3.819 -20.033,-3.819 m 45.31,3.594 c -4.824,-3.619 -9.345,-5.566 -11.418,-5.566 -2.073,0 -6.592,1.946 -11.417,5.565 -0.181,0.137 -0.362,0.268 -0.546,0.41 -0.172,0.132 -0.345,0.276 -0.517,0.414 -6.284,4.998 -12.809,12.777 -14.973,22.787 -0.042,0.195 -0.092,0.384 -0.131,0.58 -0.039,0.199 -0.067,0.402 -0.103,0.601 -0.193,1.079 -0.344,2.178 -0.429,3.306 -0.691,9.175 1.822,15.331 4.628,19.261 2.34,-1.429 5.057,-2.458 8.085,-2.686 0.534,-0.04 1.051,-0.059 1.55,-0.059 h 0.001 c 1.967,0 3.637,0.298 5.05,0.764 0.319,0.105 0.608,0.228 0.901,0.349 0.347,0.143 0.675,0.295 0.987,0.456 1.127,0.581 2.031,1.248 2.736,1.904 0.141,0.133 0.292,0.267 0.418,0.397 0.061,0.062 0.111,0.127 0.169,0.19 0.198,0.212 0.392,0.425 0.567,0.644 0.383,0.477 0.705,0.967 0.986,1.454 0.185,0.323 0.353,0.643 0.495,0.959 0.349,-0.07 0.708,-0.109 1.072,-0.13 0.156,-0.01 0.312,-0.024 0.471,-0.024 0.159,0 0.314,0.014 0.471,0.023 0.368,0.022 0.732,0.062 1.085,0.133 0.003,10e-4 0.006,10e-4 0.008,0.002 10e-4,-0.003 0.003,-0.005 0.004,-0.007 0.141,-0.318 0.308,-0.642 0.496,-0.971 0.271,-0.476 0.588,-0.955 0.963,-1.429 0.178,-0.226 0.361,-0.452 0.565,-0.673 0.182,-0.197 0.385,-0.388 0.588,-0.578 0.763,-0.718 1.678,-1.374 2.755,-1.923 0.315,-0.161 0.64,-0.314 0.984,-0.454 0.288,-0.117 0.581,-0.231 0.891,-0.331 1.442,-0.469 3.108,-0.753 5.042,-0.753 h 0.002 c 0.5,0 1.016,0.019 1.552,0.059 3.027,0.227 5.745,1.256 8.083,2.684 2.806,-3.929 5.32,-10.085 4.628,-19.261 -0.085,-1.133 -0.237,-2.238 -0.431,-3.322 -0.035,-0.194 -0.063,-0.392 -0.101,-0.584 -0.039,-0.201 -0.091,-0.397 -0.134,-0.597 -2.169,-10.001 -8.688,-17.774 -14.968,-22.77 -0.173,-0.138 -0.346,-0.282 -0.519,-0.415 -0.183,-0.142 -0.364,-0.272 -0.546,-0.409 m 45.713,2.234 c -2.803,-2.803 -12.483,-5.828 -23.236,-5.827 -5.604,0 -12.832,0.806 -20.033,3.819 6.351,5.247 12.639,13.223 14.777,23.165 2.004,-0.292 4.147,-0.45 6.439,-0.45 h 0.001 c 1.255,0 2.554,0.05 3.859,0.148 9.617,0.723 17.515,4.578 23.603,9.038 1.602,-14.095 -2.477,-26.96 -5.41,-29.893 m 13.24,77.465 c -1.862,1.957 -4.101,4.041 -6.688,6.041 0.415,3.242 0.525,6.3 0.459,9.002 -0.27,10.945 -3.377,19.813 -6.163,22.6 -3.038,3.037 -12.879,6.179 -24.084,6.179 -5.887,0 -13.527,-0.869 -21.103,-4.168 -5.083,3.956 -10.053,6.137 -12.792,6.137 -2.739,0 -7.71,-2.181 -12.794,-6.138 -7.575,3.298 -15.214,4.167 -21.099,4.167 -11.209,0 -21.05,-3.143 -24.088,-6.18 -2.785,-2.786 -5.891,-11.654 -6.159,-22.599 -0.068,-2.701 0.043,-5.76 0.459,-9.003 -2.587,-1.999 -4.827,-4.083 -6.689,-6.039 -7.549,-7.931 -11.623,-16.398 -11.623,-20.339 0,-3.94 4.074,-12.407 11.623,-20.336 1.862,-1.957 4.103,-4.042 6.69,-6.041 -0.415,-3.243 -0.526,-6.3 -0.459,-9.001 0.268,-10.945 3.375,-19.814 6.162,-22.601 3.038,-3.037 12.879,-6.178 24.085,-6.178 h 0.001 c 5.886,0 13.524,0.869 21.098,4.166 5.084,-3.956 10.054,-6.137 12.793,-6.137 2.739,0 7.71,2.181 12.794,6.138 7.576,-3.297 15.215,-4.166 21.101,-4.167 h 0.001 c 11.208,0 21.049,3.144 24.087,6.181 2.785,2.787 5.89,11.654 6.16,22.599 0.066,2.701 -0.044,5.76 -0.46,9.002 2.587,2 4.827,4.084 6.689,6.041 7.549,7.93 11.622,16.397 11.622,20.338 0,3.94 -4.073,12.406 -11.623,20.336"
             style="fill:#ffffff;fill-opacity:1;fill-rule:nonzero;stroke:none"
             id="path104"
             inkscape:connector-curvature="0" /></g></g></g><rect
       style="fill:none;stroke-width:0.75"
       id="rect106"
       width="170.18481"
       height="138.57906"
       x="42.372543"
       y="-147.26195"
       transform="scale(1,-1)"
       ry="23.617481" /><rect
       style="fill:none;stroke-width:0.75"
       id="rect108"
       width="170.18481"
       height="138.57906"
       x="42.372543"
       y="-147.26195"
       transform="scale(1,-1)"
       ry="43.761806"
       rx="85.092407" /></g></svg>