<?xml version="1.0" encoding="UTF-8"?>
<!-- Generator: Adobe Illustrator 22.0.1, SVG Export Plug-In . SVG Version: 6.00 Build 0)  -->
<svg version="1.1" id="Layer_1" xmlns="http://www.w3.org/2000/svg" xmlns:xlink="http://www.w3.org/1999/xlink" x="0px" y="0px" viewBox="0 0 100 100" style="enable-background:new 0 0 100 100;" xml:space="preserve">
<style type="text/css">
	.st0{fill:#FFFFFF;}
	.st1{fill:#33388A;}
	.st2{fill:#ED1C24;}
</style>
<path class="st0" d="M0,13.2c12.6,23,26.8,31.5,56.2,19.2c15.9-6.6,22.6,3.1,26.4,7.5c1.9,2.1,4.2,4.2,6.2,5.2  c0.2,0.1,0.3,0.2,0.5,0.2c2.3,1.2,4.5,1.5,6.3,1.5c1.9,0,3.3-0.5,4.3-0.9v-0.8c-1.9,0-5.2-0.4-8.8-3c-4-2.5-6.8-8.4-8.5-11.8  c-0.3-0.6-0.6-1.2-0.9-1.8c0,0,0,0,0-0.1c0,0,0,0,0,0c-0.2-0.2-0.3-0.5-0.5-0.8c0,0,0,0,0,0c-0.2-0.2-0.3-0.5-0.5-0.7l0,0  c-0.2-0.2-0.4-0.5-0.6-0.7c0,0,0,0,0,0c-0.2-0.2-0.4-0.5-0.7-0.7l0,0c-0.2-0.2-0.5-0.4-0.7-0.7c-0.2-0.2-0.5-0.4-0.8-0.6  c0,0,0,0-0.1,0c-0.3-0.2-0.6-0.4-0.9-0.5c-0.3-0.2-0.7-0.3-1-0.4h0c0,0,0,0-0.1,0c-0.2,0-0.3-0.1-0.5-0.2c0,0-0.1,0-0.1,0  c-0.2,0-0.4-0.1-0.6-0.2c0,0-0.1,0-0.2,0c-0.2,0-0.3-0.1-0.5-0.1c0,0-0.1,0-0.2,0c-0.2,0-0.4-0.1-0.7-0.1c0,0,0,0-0.1,0  c-0.2,0-0.4,0-0.6,0c-0.1,0-0.1,0-0.2,0c-0.2,0-0.4,0-0.6,0c0,0-0.1,0-0.1,0c-0.3,0-0.5,0-0.8,0c-0.1,0-0.1,0-0.2,0  c-0.2,0-0.4,0-0.6,0c-0.1,0-0.1,0-0.2,0c-0.2,0-0.5,0-0.8,0.1c0,0-0.1,0-0.2,0c-0.2,0-0.5,0.1-0.7,0.1c-0.1,0-0.2,0-0.2,0  c-0.3,0-0.6,0.1-0.9,0.2c0,0,0,0-0.1,0c-0.3,0.1-0.6,0.2-0.9,0.2c-0.1,0-0.2,0-0.3,0.1c-0.2,0.1-0.5,0.2-0.8,0.2  c-0.1,0-0.2,0-0.2,0.1c-0.3,0.1-0.7,0.2-1,0.3c0,0-0.1,0-0.2,0.1c-0.3,0.1-0.6,0.2-0.9,0.3c-0.1,0-0.2,0.1-0.3,0.1  c-0.4,0.1-0.7,0.3-1.1,0.4c-9.9,4.2-19.7,10.5-30.8,9.3c-5.7-0.6-12.7-2.6-16.2-10.9C10.5,15.7,13.4,7.1,8,0H0V13.2z"/>
<path class="st1" d="M89.4,45.4c-0.2-0.1-0.3-0.2-0.5-0.2c-2-1.1-4.3-3.1-6.2-5.2c-3.8-4.4-10.5-14.1-26.4-7.5  C26.8,44.7,12.6,36.1,0,13.2V100h100V45.9c-1,0.4-2.4,0.9-4.3,0.9C93.8,46.9,91.7,46.6,89.4,45.4z"/>
<path class="st2" d="M30.1,33.8c11.1,1.2,20.8-5.1,30.8-9.3c0.4-0.2,0.7-0.3,1.1-0.4c0.1,0,0.2-0.1,0.3-0.1c0.3-0.1,0.6-0.2,0.9-0.3  c0.1,0,0.2,0,0.2-0.1c0.3-0.1,0.7-0.2,1-0.3c0.1,0,0.2,0,0.2-0.1c0.3-0.1,0.5-0.2,0.8-0.2c0.1,0,0.2,0,0.3-0.1  c0.3-0.1,0.7-0.2,0.9-0.2c0,0,0,0,0.1,0c0.3-0.1,0.6-0.1,0.9-0.2c0.1,0,0.2,0,0.2,0c0.2,0,0.5-0.1,0.7-0.1c0,0,0.1,0,0.2,0  c0.3,0,0.6-0.1,0.8-0.1c0.1,0,0.1,0,0.2,0c0.2,0,0.4,0,0.6,0c0.1,0,0.1,0,0.2,0c0.2,0,0.5,0,0.8,0c0,0,0.1,0,0.1,0  c0.2,0,0.4,0,0.6,0c0.1,0,0.1,0,0.2,0c0.2,0,0.4,0,0.6,0c0,0,0.1,0,0.1,0c0.2,0,0.4,0.1,0.7,0.1c0,0,0.1,0,0.2,0  c0.2,0,0.3,0.1,0.5,0.1c0,0,0.1,0,0.2,0c0.2,0,0.4,0.1,0.6,0.2c0,0,0.1,0,0.1,0c0.2,0,0.3,0.1,0.5,0.2c0,0,0,0,0.1,0h0  c0.3,0.1,0.7,0.3,1,0.4c0.3,0.2,0.6,0.3,0.9,0.5c0,0,0,0,0.1,0c0.3,0.2,0.6,0.4,0.8,0.6c0.2,0.2,0.5,0.4,0.7,0.7l0,0  c0.2,0.2,0.4,0.4,0.7,0.7c0,0,0,0,0,0c0.2,0.2,0.4,0.5,0.6,0.7l0,0c0.2,0.2,0.4,0.5,0.5,0.7c0,0,0,0,0,0c0.2,0.2,0.3,0.5,0.5,0.8  c0,0,0,0,0,0c0,0,0,0,0,0.1c0.3,0.6,0.7,1.2,0.9,1.8c1.7,3.4,4.6,9.3,8.5,11.8c3.6,2.6,7,3,8.8,3V0H8c5.4,7.1,2.5,15.7,5.9,23  C17.4,31.3,24.4,33.2,30.1,33.8z"/>
<path class="st0" d="M24.7,56.3c0.3,0.3,0.5,0.7,0.5,1.2c0,0.5-0.1,1.1-0.4,1.7c-0.2,0.6-0.7,1.2-1.2,1.7c-0.5,0.6-1.2,1-2,1.4  c-0.8,0.3-1.8,0.5-2.9,0.5c-0.8,0-1.5-0.1-2.2-0.2c-0.7-0.2-1.3-0.4-1.8-0.7c-0.6-0.3-1.1-0.8-1.5-1.3c-0.4-0.5-0.8-1.1-1.1-1.6  c-0.3-0.6-0.5-1.3-0.7-1.9c-0.2-0.7-0.2-1.4-0.2-2.2c0-1.2,0.2-2.3,0.5-3.3c0.4-1,0.9-1.8,1.6-2.5c0.7-0.7,1.5-1.3,2.4-1.6  c0.9-0.4,1.9-0.6,2.9-0.6c1.3,0,2.4,0.2,3.4,0.8c1,0.5,1.8,1.1,2.3,1.9c0.5,0.8,0.8,1.5,0.8,2.2c0,0.4-0.2,0.9-0.5,1.2  c-0.3,0.4-0.7,0.5-1.2,0.5c-0.5,0-0.9-0.1-1.1-0.4c-0.2-0.2-0.4-0.6-0.7-1.1c-0.4-0.7-0.8-1.1-1.2-1.5c-0.4-0.3-1-0.4-1.7-0.4  c-1.1,0-1.9,0.4-2.6,1.2c-0.7,0.9-1,2.1-1,3.7c0,1.1,0.2,2,0.4,2.7c0.3,0.7,0.7,1.2,1.2,1.5c0.5,0.3,1.1,0.5,1.8,0.5  c0.8,0,1.4-0.2,1.9-0.5c0.5-0.4,0.9-0.9,1.2-1.7c0.1-0.4,0.3-0.8,0.5-1.1c0.3-0.4,0.7-0.5,1.3-0.5C23.9,55.8,24.3,56,24.7,56.3z   M37.7,46.8c-0.6,0-1,0.2-1.4,0.6c-0.3,0.4-0.5,0.9-0.5,1.6v3.8h-5.5v-3.8c0-0.7-0.2-1.3-0.5-1.7c-0.4-0.4-0.9-0.6-1.4-0.6  s-1.1,0.2-1.4,0.6c-0.3,0.4-0.5,0.9-0.5,1.6v11.5c0,0.7,0.2,1.3,0.5,1.6c0.4,0.4,0.8,0.6,1.4,0.6s1.1-0.2,1.4-0.6  c0.4-0.4,0.5-0.9,0.5-1.7v-4.5h5.5v4.5c0,0.7,0.2,1.3,0.5,1.6c0.4,0.4,0.8,0.6,1.4,0.6c0.6,0,1-0.2,1.4-0.6c0.4-0.4,0.5-0.9,0.5-1.7  V49.1c0-0.7-0.2-1.3-0.5-1.7C38.7,47,38.3,46.8,37.7,46.8z M54.3,59.3c0.3,0.8,0.5,1.3,0.5,1.8c0,0.4-0.2,0.9-0.6,1.3  c-0.4,0.4-0.8,0.6-1.3,0.6c-0.3,0-0.6,0-0.8-0.2c-0.2-0.1-0.4-0.3-0.6-0.4c-0.1-0.2-0.3-0.4-0.4-0.8c-0.1-0.3-0.2-0.6-0.3-0.8  l-0.6-1.5h-5.3l-0.6,1.6c-0.3,0.8-0.5,1.3-0.8,1.6c-0.3,0.4-0.7,0.6-1.3,0.6c-0.5,0-0.9-0.2-1.3-0.5c-0.4-0.4-0.6-0.8-0.6-1.3  c0-0.2,0-0.5,0.1-0.7c0.1-0.2,0.2-0.5,0.3-0.9L44.8,49c0.2-0.4,0.3-0.8,0.5-1.1c0.2-0.3,0.5-0.6,0.8-0.7c0.3-0.2,0.8-0.3,1.3-0.3  s0.9,0.1,1.3,0.3c0.3,0.2,0.6,0.4,0.8,0.7s0.4,0.6,0.5,0.9c0.1,0.3,0.3,0.7,0.4,1.1L54.3,59.3z M49,56l-1.5-4.3L45.9,56H49z   M66.5,46.8c-0.5,0-1,0.2-1.3,0.6c-0.3,0.4-0.5,0.9-0.5,1.5v7.2l-4.9-7.4c-0.2-0.2-0.3-0.5-0.4-0.7c-0.2-0.2-0.3-0.5-0.5-0.7  c-0.2-0.2-0.4-0.3-0.7-0.4c-0.2-0.1-0.5-0.2-0.9-0.2c-0.4,0-0.8,0.1-1.2,0.4c-0.4,0.2-0.7,0.6-0.8,0.9c-0.1,0.3-0.2,0.7-0.2,1.3  v11.3c0,0.7,0.2,1.2,0.5,1.5c0.3,0.4,0.8,0.6,1.3,0.6c0.5,0,1-0.2,1.3-0.6c0.3-0.4,0.5-0.9,0.5-1.6v-7.1l4.7,7.3  c0.2,0.2,0.3,0.4,0.5,0.7c0.2,0.2,0.4,0.5,0.6,0.7c0.2,0.2,0.5,0.4,0.7,0.4c0.2,0.1,0.6,0.1,0.9,0.1c0.8,0,2-0.3,2-2.4V49  c0-0.7-0.2-1.2-0.5-1.5C67.5,47,67.1,46.8,66.5,46.8z M71.5,46.8c-0.6,0-1,0.2-1.4,0.6c-0.4,0.4-0.5,0.9-0.5,1.6v11.5  c0,0.7,0.2,1.3,0.5,1.7c0.4,0.4,0.8,0.6,1.4,0.6s1.1-0.2,1.4-0.6c0.4-0.4,0.5-0.9,0.5-1.7V49.1c0-0.7-0.2-1.3-0.5-1.7  C72.6,47,72.1,46.8,71.5,46.8z M88.7,61.1c0,0.4-0.2,0.9-0.6,1.3c-0.4,0.4-0.8,0.6-1.3,0.6c-0.3,0-0.6,0-0.8-0.2  c-0.2-0.1-0.4-0.3-0.6-0.4c-0.1-0.2-0.3-0.4-0.4-0.8c-0.1-0.3-0.2-0.6-0.3-0.8l-0.6-1.5h-5.3l-0.6,1.6c-0.3,0.8-0.5,1.3-0.8,1.6  c-0.3,0.4-0.7,0.6-1.3,0.6c-0.5,0-0.9-0.2-1.3-0.5c-0.4-0.4-0.6-0.8-0.6-1.3c0-0.2,0-0.5,0.1-0.7s0.2-0.5,0.3-0.9L78.8,49  c0.2-0.4,0.3-0.8,0.5-1c0.2-0.3,0.5-0.6,0.8-0.7c0.3-0.2,0.8-0.3,1.2-0.3c0.5,0,0.9,0.1,1.3,0.3c0.3,0.2,0.6,0.4,0.8,0.7  s0.3,0.6,0.5,0.9c0.1,0.3,0.3,0.7,0.4,1.1l3.8,9.5C88.6,60.1,88.7,60.6,88.7,61.1z M83,56l-1.5-4.3L79.9,56H83z M26.6,74.4  c0,1-0.1,2-0.3,2.9c-0.2,0.9-0.5,1.7-0.9,2.4c-0.4,0.7-0.9,1.3-1.5,1.9c-0.5,0.4-1,0.8-1.6,1.1c-0.6,0.2-1.2,0.4-1.8,0.5  c-0.6,0.1-1.3,0.2-2.2,0.2H14c-0.7,0-1.3-0.1-1.6-0.4c-0.4-0.2-0.7-0.6-0.8-1.1c-0.1-0.4-0.2-0.9-0.2-1.5V68.1c0-0.9,0.2-1.5,0.7-2  c0.4-0.4,1.1-0.7,2-0.7h4.4c1.2,0,2.2,0.1,3.1,0.3c0.9,0.2,1.7,0.7,2.4,1.3C25.7,68.8,26.6,71.2,26.6,74.4z M22.2,74.4  c0-1.5-0.2-2.7-0.7-3.4c-0.4-0.7-0.9-1.1-1.5-1.3c-0.7-0.2-1.5-0.3-2.5-0.3h-1.7v10.3h2c0.5,0,1,0,1.3,0s0.6-0.1,0.9-0.2  c0.3-0.1,0.5-0.2,0.7-0.4C21.7,78.1,22.2,76.6,22.2,74.4z M30,65.3c-0.7,0-1.2,0.2-1.6,0.7c-0.4,0.4-0.6,1.1-0.6,1.9V81  c0,0.8,0.2,1.4,0.6,1.9c0.4,0.4,0.9,0.7,1.6,0.7s1.2-0.2,1.6-0.7s0.6-1.1,0.6-1.9V67.9c0-0.8-0.2-1.5-0.6-1.9  C31.2,65.6,30.7,65.3,30,65.3z M47.8,65.6c-0.3-0.2-0.7-0.3-1.1-0.3c-0.5,0-0.9,0.1-1.3,0.4c-0.3,0.2-0.5,0.5-0.7,0.8  c-0.1,0.2-0.2,0.7-0.4,1.3l-3.3,9.8l-3.3-9.7c-0.3-0.8-0.5-1.4-0.8-1.8c-0.2-0.3-0.7-0.7-1.6-0.7c-0.6,0-1.1,0.2-1.5,0.6  c-0.4,0.4-0.6,0.9-0.6,1.4c0,0.2,0,0.4,0.1,0.7s0.1,0.5,0.2,0.7s0.1,0.4,0.2,0.6l4,10.8c0.2,0.4,0.3,0.8,0.4,1.2  c0.2,0.4,0.3,0.8,0.6,1.1c0.2,0.4,0.6,0.7,0.9,0.9c0.4,0.2,0.9,0.3,1.4,0.3c0.5,0,1-0.1,1.4-0.3c0.4-0.2,0.7-0.5,0.9-0.9  c0.2-0.3,0.4-0.7,0.6-1.1c0.2-0.4,0.3-0.8,0.4-1.2l4-10.9c0.1-0.2,0.1-0.4,0.2-0.6s0.1-0.4,0.2-0.6c0-0.2,0.1-0.4,0.1-0.7  c0-0.3-0.1-0.7-0.3-1C48.4,66.1,48.2,65.8,47.8,65.6z M52.1,65.3c-0.7,0-1.2,0.2-1.6,0.7c-0.4,0.4-0.6,1.1-0.6,1.9V81  c0,0.8,0.2,1.4,0.6,1.9c0.4,0.4,0.9,0.7,1.6,0.7c0.7,0,1.2-0.2,1.6-0.7c0.4-0.4,0.6-1.1,0.6-1.9V67.9c0-0.8-0.2-1.5-0.6-1.9  C53.3,65.6,52.8,65.3,52.1,65.3z M68.8,65.3c-0.6,0-1.1,0.2-1.5,0.7s-0.5,1-0.5,1.8V76l-5.5-8.4c-0.2-0.3-0.4-0.6-0.5-0.8  c-0.2-0.3-0.4-0.5-0.6-0.7s-0.4-0.4-0.7-0.5c-0.3-0.1-0.6-0.2-1-0.2c-0.5,0-0.9,0.1-1.3,0.4c-0.4,0.3-0.7,0.6-0.9,1.1  C56,67.2,56,67.7,56,68.3v12.8c0,0.7,0.2,1.3,0.6,1.8c0.4,0.4,0.9,0.7,1.5,0.7c0.6,0,1.1-0.2,1.5-0.7c0.4-0.4,0.6-1,0.6-1.8v-8  l5.4,8.3c0.2,0.3,0.4,0.5,0.6,0.8c0.2,0.3,0.4,0.5,0.7,0.7c0.2,0.2,0.5,0.4,0.9,0.5c0.3,0.1,0.6,0.2,1,0.2c0.9,0,2.3-0.4,2.3-2.7  V67.8c0-0.8-0.2-1.4-0.5-1.8C70,65.6,69.5,65.3,68.8,65.3z M88.2,74.4c-0.3-0.4-0.7-0.7-1.1-0.8c-0.4-0.1-0.8-0.2-1.3-0.2H82  c-0.6,0-1.1,0.2-1.4,0.5c-0.4,0.3-0.6,0.8-0.6,1.3c0,0.8,0.4,1.2,0.7,1.4c0.4,0.2,0.9,0.4,1.7,0.4h2.1v1.9c-0.6,0.3-1.1,0.5-1.7,0.7  c-0.7,0.2-1.3,0.3-2,0.3c-1.5,0-2.6-0.4-3.4-1.4c-0.8-0.9-1.2-2.4-1.2-4.2c0-0.9,0.1-1.6,0.3-2.3c0.2-0.7,0.5-1.3,0.9-1.7  s0.9-0.8,1.4-1c0.5-0.2,1.2-0.4,1.9-0.4c0.7,0,1.2,0.1,1.7,0.3c0.4,0.2,0.8,0.4,1,0.7c0.3,0.3,0.6,0.8,1,1.4v0  c0.2,0.3,0.4,0.5,0.7,0.6c0.3,0.2,0.6,0.2,0.9,0.2c0.6,0,1.1-0.2,1.5-0.6c0.4-0.4,0.6-0.9,0.6-1.5c0-0.5-0.2-1-0.5-1.6  c-0.3-0.6-0.7-1.1-1.3-1.6c-0.6-0.5-1.3-0.9-2.2-1.2c-0.9-0.3-2-0.5-3.1-0.5c-1.4,0-2.7,0.2-3.8,0.6s-2.1,1-2.9,1.8  c-0.8,0.8-1.4,1.8-1.8,2.9c-0.4,1.1-0.6,2.4-0.6,3.7c0,1.4,0.2,2.7,0.6,3.8c0.4,1.1,1,2.1,1.8,2.9c0.8,0.8,1.8,1.4,2.9,1.8  c1.1,0.4,2.3,0.6,3.7,0.6c1.1,0,2.2-0.1,3.2-0.4c1-0.2,2-0.7,3-1.2c0.4-0.2,0.7-0.4,0.9-0.7c0.3-0.2,0.5-0.6,0.6-0.9  c0.1-0.3,0.2-0.7,0.2-1.2v-3.2C88.6,75.3,88.5,74.8,88.2,74.4z M35.2,91c-0.2,0-0.3,0-0.4,0.2c-0.1,0.1-0.2,0.2-0.2,0.4  c-0.1,0.4-0.3,0.7-0.6,0.9c-0.3,0.2-0.6,0.3-1,0.3c-0.4,0-0.7-0.1-0.9-0.2c-0.3-0.2-0.5-0.4-0.6-0.8c-0.2-0.4-0.2-0.8-0.2-1.3  c0-0.8,0.2-1.4,0.5-1.8c0.3-0.4,0.8-0.7,1.3-0.7c0.4,0,0.7,0.1,0.9,0.2c0.2,0.2,0.4,0.4,0.6,0.7c0.1,0.2,0.2,0.3,0.3,0.4  c0.1,0.1,0.2,0.1,0.4,0.1c0.2,0,0.3,0,0.4-0.2c0.1-0.1,0.2-0.2,0.2-0.4c0-0.3-0.1-0.6-0.3-0.9c-0.2-0.3-0.6-0.6-1-0.8  c-0.4-0.2-0.9-0.3-1.5-0.3c-0.4,0-0.9,0.1-1.3,0.2c-0.4,0.2-0.7,0.4-1,0.7c-0.3,0.3-0.5,0.7-0.7,1.1c-0.2,0.4-0.2,0.9-0.2,1.5  c0,0.3,0,0.7,0.1,0.9c0.1,0.3,0.2,0.6,0.3,0.9c0.1,0.2,0.3,0.5,0.4,0.7c0.2,0.2,0.4,0.4,0.7,0.6c0.2,0.2,0.5,0.2,0.8,0.3  s0.6,0.1,1,0.1c0.5,0,0.9-0.1,1.2-0.2c0.4-0.2,0.7-0.3,0.9-0.6c0.2-0.2,0.4-0.5,0.5-0.7c0.1-0.2,0.2-0.5,0.2-0.7  c0-0.2,0-0.3-0.2-0.4C35.5,91.1,35.4,91,35.2,91z M42,92.7h-3.2v-1.9h2.9c0.2,0,0.4,0,0.5-0.2c0.1-0.1,0.2-0.2,0.2-0.4  s0-0.3-0.2-0.4s-0.2-0.1-0.4-0.1h-2.9v-1.7h3.1c0.2,0,0.4,0,0.5-0.2c0.1-0.1,0.2-0.2,0.2-0.4c0-0.2,0-0.3-0.2-0.4S42.1,87,41.9,87  h-3.6c-0.2,0-0.4,0-0.5,0.1c-0.1,0-0.2,0.2-0.3,0.3c0,0.1-0.1,0.3-0.1,0.5v5.1c0,0.3,0.1,0.5,0.2,0.7c0.1,0.1,0.3,0.2,0.7,0.2H42  c0.2,0,0.4,0,0.5-0.2c0.1-0.1,0.2-0.2,0.2-0.4s0-0.3-0.2-0.4C42.4,92.7,42.2,92.7,42,92.7z M49.1,86.9c-0.2,0-0.3,0.1-0.4,0.2  c-0.1,0.1-0.2,0.3-0.2,0.6v4l-2.7-4c-0.1-0.1-0.2-0.2-0.2-0.3c-0.1-0.1-0.1-0.2-0.2-0.2c-0.1-0.1-0.2-0.1-0.2-0.2  c-0.1,0-0.2,0-0.3,0c-0.2,0-0.3,0-0.4,0.1c-0.1,0.1-0.2,0.2-0.3,0.3s-0.1,0.3-0.1,0.5v5.2c0,0.2,0,0.4,0.2,0.6  c0.1,0.1,0.3,0.2,0.4,0.2c0.2,0,0.3-0.1,0.4-0.2c0.1-0.1,0.2-0.3,0.2-0.6v-4l2.6,3.9c0.1,0.1,0.2,0.2,0.2,0.3  c0.1,0.1,0.2,0.2,0.2,0.3s0.2,0.1,0.3,0.2c0.1,0,0.2,0,0.3,0c0.5,0,0.7-0.3,0.7-0.9v-5.3c0-0.2,0-0.4-0.2-0.6  C49.5,87,49.3,86.9,49.1,86.9z M56,87h-4.4c-0.2,0-0.4,0-0.5,0.2C51,87.3,51,87.4,51,87.6s0,0.3,0.2,0.4c0.1,0.1,0.3,0.2,0.5,0.2  h1.5v4.9c0,0.3,0.1,0.5,0.2,0.6s0.3,0.2,0.5,0.2c0.2,0,0.4-0.1,0.5-0.2s0.2-0.3,0.2-0.6v-4.9h1.5c0.2,0,0.4,0,0.5-0.2  c0.1-0.1,0.2-0.2,0.2-0.4s0-0.3-0.2-0.4C56.4,87.1,56.3,87,56,87z M62.5,92.7h-3.2v-1.9h2.9c0.2,0,0.4,0,0.5-0.2  c0.1-0.1,0.2-0.2,0.2-0.4s0-0.3-0.2-0.4c-0.1-0.1-0.2-0.1-0.4-0.1h-2.9v-1.7h3.1c0.2,0,0.4,0,0.5-0.2c0.1-0.1,0.2-0.2,0.2-0.4  c0-0.2,0-0.3-0.2-0.4S62.6,87,62.4,87h-3.7c-0.2,0-0.4,0-0.5,0.1c-0.1,0-0.2,0.2-0.3,0.3c0,0.1-0.1,0.3-0.1,0.5v5.1  c0,0.3,0.1,0.5,0.2,0.7c0.1,0.1,0.3,0.2,0.7,0.2h3.7c0.2,0,0.4,0,0.5-0.2c0.1-0.1,0.2-0.2,0.2-0.4s0-0.3-0.2-0.4  C62.8,92.7,62.7,92.7,62.5,92.7z M70.2,93.4c0,0.1,0,0.2-0.1,0.2c0,0.1-0.1,0.2-0.2,0.2c-0.1,0-0.2,0.1-0.3,0.1  c-0.2,0-0.3,0-0.4-0.1c-0.1-0.1-0.2-0.2-0.3-0.3s-0.2-0.3-0.3-0.5L68,92.1c-0.2-0.3-0.4-0.6-0.5-0.8c-0.2-0.2-0.3-0.3-0.5-0.4  s-0.4-0.1-0.6-0.1h-0.5V93c0,0.3-0.1,0.5-0.2,0.6s-0.3,0.2-0.5,0.2s-0.4-0.1-0.5-0.2s-0.2-0.4-0.2-0.6v-5.2c0-0.3,0.1-0.5,0.2-0.7  c0.1-0.1,0.3-0.2,0.7-0.2h2.2c0.3,0,0.6,0,0.8,0c0.2,0,0.4,0.1,0.6,0.2c0.2,0.1,0.4,0.2,0.6,0.4s0.3,0.4,0.4,0.6s0.1,0.4,0.1,0.7  c0,0.5-0.1,0.9-0.4,1.2c-0.3,0.3-0.7,0.5-1.3,0.7c0.2,0.1,0.5,0.3,0.7,0.6s0.4,0.5,0.6,0.8c0.2,0.3,0.3,0.5,0.4,0.8  S70.2,93.3,70.2,93.4z M68.5,89.5c0.1-0.1,0.2-0.3,0.2-0.6c0-0.2,0-0.4-0.2-0.5c-0.1-0.1-0.2-0.2-0.4-0.3s-0.5-0.1-0.9-0.1h-1.3v1.9  h1.2c0.3,0,0.6,0,0.8-0.1C68.2,89.8,68.4,89.7,68.5,89.5z"/>
<path class="st0" d="M48.1,24.1c0.7,1.7,2.6,2.5,4.3,1.8l21-8.6c1.7-0.7,2.5-2.6,1.8-4.3l-0.8-1.8c-0.7-1.7-2.6-2.5-4.3-1.8l-21,8.6  c-1.7,0.7-2.5,2.6-1.8,4.3L48.1,24.1z"/>
<g>
	<path class="st0" d="M94.5,21.2l-0.1,0c-0.8-1.8-2.3-3.3-4.3-3.8c-0.9-0.3-1.9-0.3-2.8-0.2V9.7c0-0.6-0.4-1-1-1c-0.6,0-1,0.4-1,1   v8.1c-1.5,0.8-2.8,2.2-3.3,4.1c-1,3.5,1.1,7.2,4.6,8.2c1.3,0.4,2.6,0.3,3.8,0c0.2,0.1,0.3,0.2,0.5,0.3l0.6,0.2   c0.9,0.3,2-0.2,2.3-1.1l2-5.9C95.9,22.6,95.4,21.5,94.5,21.2z"/>
	<path class="st0" d="M97.6,22.1c-0.4-0.1-0.8,0.1-0.9,0.4l-2.9,8.3c-0.1,0.4,0.1,0.8,0.4,0.9c0.4,0.1,0.8-0.1,0.9-0.4l2.9-8.3   C98.2,22.6,98,22.2,97.6,22.1z"/>
</g>
</svg>