<?xml version="1.0" encoding="UTF-8" standalone="no"?>
<!-- Created with Inkscape (http://www.inkscape.org/) -->

<svg
   xmlns:dc="http://purl.org/dc/elements/1.1/"
   xmlns:cc="http://creativecommons.org/ns#"
   xmlns:rdf="http://www.w3.org/1999/02/22-rdf-syntax-ns#"
   xmlns:svg="http://www.w3.org/2000/svg"
   xmlns="http://www.w3.org/2000/svg"
   xmlns:sodipodi="http://sodipodi.sourceforge.net/DTD/sodipodi-0.dtd"
   xmlns:inkscape="http://www.inkscape.org/namespaces/inkscape"
   version="1.1"
   id="svg10"
   xml:space="preserve"
   width="296.36426"
   height="90.416229"
   viewBox="0 0 296.36425 90.416227"
   sodipodi:docname="logo.svg"
   inkscape:version="0.92.3 (2405546, 2018-03-11)"><metadata
     id="metadata16"><rdf:RDF><cc:Work
         rdf:about=""><dc:format>image/svg+xml</dc:format><dc:type
           rdf:resource="http://purl.org/dc/dcmitype/StillImage" /><dc:title></dc:title></cc:Work></rdf:RDF></metadata><defs
     id="defs14"><clipPath
       clipPathUnits="userSpaceOnUse"
       id="clipPath26"><path
         d="M 0,155.91 H 255.12 V 0 H 0 Z"
         id="path24"
         inkscape:connector-curvature="0" /></clipPath></defs><sodipodi:namedview
     pagecolor="#ffffff"
     bordercolor="#666666"
     borderopacity="1"
     objecttolerance="10"
     gridtolerance="10"
     guidetolerance="10"
     inkscape:pageopacity="0"
     inkscape:pageshadow="2"
     inkscape:window-width="1366"
     inkscape:window-height="705"
     id="namedview12"
     showgrid="false"
     fit-margin-top="0"
     fit-margin-left="0"
     fit-margin-right="0"
     fit-margin-bottom="0"
     inkscape:zoom="2.5880315"
     inkscape:cx="148.44193"
     inkscape:cy="50.974814"
     inkscape:window-x="-8"
     inkscape:window-y="-8"
     inkscape:window-maximized="1"
     inkscape:current-layer="g20" /><g
     id="g18"
     inkscape:groupmode="layer"
     inkscape:label="DIKTAMO_LOGO"
     transform="matrix(1.3333333,0,0,-1.3333333,-21.638069,149.1481)"><g
       id="g20"><g
         id="g22"
         clip-path="url(#clipPath26)"><g
           id="g28"
           transform="translate(87.4863,66.5708)"><path
             d="m 0,0 c -0.186,-0.146 -0.386,-0.283 -0.577,-0.424 -2.885,-2.128 -6.419,-3.773 -10.534,-4.082 -0.593,-0.045 -1.165,-0.066 -1.719,-0.066 h -10e-4 c -0.877,0 -1.687,0.071 -2.467,0.173 0.063,0.404 0.132,0.806 0.163,1.223 0.297,3.945 -0.625,6.763 -1.796,8.722 -0.104,0.176 -0.209,0.344 -0.317,0.507 0.067,0.05 0.141,0.097 0.208,0.15 0.258,0.204 0.5,0.418 0.733,0.636 1.755,1.645 2.762,3.617 2.762,4.545 0,0.929 -1.008,2.901 -2.763,4.547 -0.232,0.218 -0.474,0.432 -0.733,0.636 -0.066,0.052 -0.14,0.1 -0.208,0.15 0.108,0.162 0.213,0.33 0.318,0.506 1.17,1.96 2.092,4.777 1.796,8.722 -0.031,0.418 -0.101,0.819 -0.164,1.224 0.78,0.102 1.59,0.172 2.467,0.172 0.555,0 1.129,-0.021 1.721,-0.066 4.115,-0.309 7.649,-1.953 10.533,-4.081 C -0.386,23.053 -0.187,22.917 0,22.771 0.2,22.614 0.39,22.452 0.583,22.292 5.332,18.334 7.991,13.203 7.991,11.386 7.991,9.569 5.332,4.437 0.584,0.479 0.391,0.319 0.201,0.156 0,0 m -58.178,22.769 c 0.186,0.146 0.386,0.283 0.578,0.425 2.884,2.127 6.418,3.772 10.534,4.081 0.592,0.044 1.166,0.066 1.719,0.066 0.877,0 1.687,-0.071 2.467,-0.172 -0.062,-0.405 -0.133,-0.807 -0.164,-1.224 -0.296,-3.945 0.626,-6.763 1.797,-8.723 0.105,-0.176 0.21,-0.344 0.318,-0.506 -0.068,-0.05 -0.141,-0.098 -0.208,-0.15 -0.259,-0.204 -0.501,-0.418 -0.734,-0.636 -1.754,-1.646 -2.762,-3.617 -2.762,-4.546 0,-0.928 1.008,-2.9 2.762,-4.545 0.233,-0.219 0.475,-0.433 0.734,-0.637 0.067,-0.052 0.14,-0.099 0.208,-0.15 -0.108,-0.162 -0.213,-0.33 -0.317,-0.506 -1.171,-1.959 -2.093,-4.777 -1.796,-8.722 0.031,-0.418 0.102,-0.821 0.163,-1.227 -0.773,-0.099 -1.581,-0.169 -2.464,-0.169 h -0.002 c -0.554,0 -1.129,0.021 -1.721,0.066 -4.116,0.309 -7.65,1.952 -10.534,4.08 -0.192,0.141 -0.391,0.278 -0.578,0.424 -0.2,0.157 -0.389,0.318 -0.583,0.48 -4.749,3.957 -7.408,9.088 -7.408,10.905 0,1.818 2.659,6.95 7.407,10.907 0.195,0.161 0.384,0.322 0.584,0.479 M -28.39,8.804 c -0.115,-0.031 -0.232,-0.053 -0.352,-0.069 -0.092,-0.011 -0.183,-0.025 -0.277,-0.027 -0.024,0 -0.045,-0.007 -0.07,-0.007 -0.022,0 -0.045,0.006 -0.067,0.007 -0.096,0.002 -0.188,0.016 -0.28,0.027 -0.12,0.017 -0.237,0.038 -0.351,0.069 -0.221,0.06 -0.428,0.147 -0.622,0.258 -0.108,0.062 -0.209,0.127 -0.307,0.203 -0.146,0.113 -0.279,0.239 -0.399,0.379 -0.206,0.239 -0.37,0.511 -0.483,0.813 -0.068,0.185 -0.113,0.379 -0.14,0.581 -0.015,0.114 -0.034,0.228 -0.034,0.346 0,0.119 0.019,0.233 0.034,0.348 0.027,0.201 0.072,0.395 0.14,0.581 0.113,0.301 0.277,0.573 0.483,0.812 0.121,0.141 0.254,0.267 0.399,0.38 0.098,0.075 0.199,0.141 0.307,0.202 0.194,0.111 0.401,0.198 0.621,0.257 0.115,0.032 0.232,0.054 0.352,0.07 0.092,0.011 0.184,0.025 0.28,0.028 0.022,0 0.045,0.007 0.067,0.007 0.021,0 0.039,-0.006 0.059,-0.006 0.098,-0.002 0.193,-0.018 0.288,-0.029 0.12,-0.016 0.237,-0.038 0.352,-0.069 0.22,-0.06 0.427,-0.147 0.621,-0.257 0.108,-0.062 0.209,-0.128 0.307,-0.204 0.147,-0.112 0.279,-0.239 0.4,-0.379 0.206,-0.239 0.371,-0.512 0.482,-0.813 0.068,-0.185 0.113,-0.379 0.141,-0.58 0.014,-0.115 0.034,-0.229 0.034,-0.348 0,-0.118 -0.02,-0.232 -0.034,-0.346 -0.028,-0.202 -0.073,-0.397 -0.141,-0.582 -0.112,-0.302 -0.277,-0.574 -0.483,-0.813 C -27.184,9.504 -27.315,9.377 -27.462,9.265 -27.56,9.189 -27.661,9.123 -27.769,9.062 -27.963,8.951 -28.171,8.864 -28.39,8.804 M -39.065,6.371 c -0.016,0.009 -0.034,0.016 -0.049,0.025 -0.177,0.095 -0.344,0.201 -0.511,0.307 -0.113,0.073 -0.224,0.148 -0.333,0.224 -0.068,0.049 -0.136,0.098 -0.202,0.147 -2.013,1.502 -3.183,3.618 -3.183,4.31 0,0.692 1.17,2.808 3.183,4.309 0.066,0.051 0.134,0.1 0.202,0.149 0.109,0.076 0.22,0.151 0.333,0.223 0.167,0.107 0.335,0.211 0.511,0.308 0.015,0.009 0.033,0.016 0.049,0.023 0.294,0.159 0.606,0.296 0.927,0.418 0.617,0.235 1.275,0.403 1.979,0.456 0.224,0.017 0.441,0.024 0.651,0.024 1.069,0 1.921,-0.224 2.619,-0.554 0.589,-0.278 1.069,-0.628 1.432,-1.012 0.214,-0.226 0.386,-0.457 0.531,-0.687 0.026,-0.041 0.042,-0.078 0.066,-0.117 -0.035,-0.017 -0.066,-0.037 -0.099,-0.054 v 0 c -0.307,-0.166 -0.593,-0.361 -0.844,-0.598 -0.022,-0.021 -0.035,-0.05 -0.057,-0.071 -0.008,-0.007 -0.017,-0.013 -0.026,-0.02 -0.103,-0.104 -0.187,-0.217 -0.26,-0.336 -0.11,-0.138 -0.239,-0.26 -0.332,-0.413 -0.035,-0.057 -0.064,-0.118 -0.096,-0.178 -0.088,-0.162 -0.167,-0.326 -0.232,-0.501 -0.027,-0.074 -0.048,-0.15 -0.07,-0.226 -0.042,-0.139 -0.088,-0.276 -0.115,-0.421 -0.035,-0.194 -0.053,-0.394 -0.06,-0.597 -0.002,-0.043 -0.012,-0.082 -0.012,-0.125 0,-0.042 0.01,-0.081 0.012,-0.123 0.007,-0.203 0.025,-0.404 0.06,-0.597 0.027,-0.146 0.073,-0.283 0.115,-0.422 0.022,-0.076 0.043,-0.153 0.07,-0.226 0.065,-0.174 0.144,-0.34 0.232,-0.502 0.032,-0.059 0.061,-0.12 0.096,-0.178 0.104,-0.171 0.248,-0.312 0.374,-0.465 0.064,-0.099 0.132,-0.196 0.219,-0.283 0.007,-0.006 0.015,-0.012 0.023,-0.018 0.022,-0.021 0.035,-0.051 0.058,-0.072 0.252,-0.237 0.538,-0.433 0.845,-0.599 0.034,-0.019 0.067,-0.038 0.102,-0.056 -0.024,-0.04 -0.043,-0.079 -0.068,-0.12 -0.147,-0.233 -0.319,-0.466 -0.531,-0.689 -0.015,-0.016 -0.023,-0.032 -0.038,-0.047 -0.321,-0.33 -0.786,-0.684 -1.402,-0.969 -0.801,-0.372 -1.863,-0.622 -3.263,-0.52 -0.704,0.053 -1.362,0.221 -1.98,0.456 -0.32,0.122 -0.632,0.258 -0.926,0.417 m 21.048,0.704 c -0.067,-0.05 -0.134,-0.099 -0.203,-0.147 -0.108,-0.077 -0.218,-0.152 -0.332,-0.224 -0.167,-0.107 -0.336,-0.212 -0.511,-0.308 -0.016,-0.009 -0.033,-0.016 -0.049,-0.024 -0.295,-0.159 -0.607,-0.296 -0.928,-0.418 -0.617,-0.235 -1.274,-0.402 -1.979,-0.455 -0.223,-0.017 -0.44,-0.025 -0.649,-0.025 -1.069,0 -1.922,0.224 -2.62,0.554 -0.59,0.278 -1.068,0.628 -1.433,1.012 -0.213,0.226 -0.385,0.458 -0.531,0.688 -0.025,0.04 -0.042,0.078 -0.065,0.118 0.034,0.016 0.065,0.035 0.098,0.053 0.307,0.165 0.593,0.362 0.845,0.598 0.023,0.022 0.036,0.051 0.059,0.073 0.008,0.006 0.016,0.012 0.023,0.019 0.091,0.09 0.162,0.19 0.228,0.293 0.123,0.151 0.262,0.287 0.364,0.454 0.035,0.058 0.065,0.119 0.096,0.178 0.088,0.162 0.167,0.328 0.232,0.502 0.027,0.073 0.048,0.15 0.07,0.226 0.042,0.139 0.088,0.276 0.115,0.421 0.036,0.194 0.053,0.394 0.06,0.597 0.002,0.042 0.013,0.081 0.013,0.124 0,0.043 -0.011,0.082 -0.013,0.125 -0.007,0.203 -0.024,0.403 -0.06,0.596 -0.027,0.146 -0.073,0.283 -0.115,0.422 -0.022,0.076 -0.043,0.152 -0.07,0.226 -0.065,0.175 -0.144,0.339 -0.232,0.501 -0.031,0.06 -0.061,0.121 -0.096,0.178 -0.101,0.167 -0.24,0.302 -0.362,0.451 -0.067,0.106 -0.139,0.207 -0.231,0.299 -0.008,0.007 -0.017,0.013 -0.023,0.019 -0.023,0.021 -0.036,0.05 -0.058,0.07 -0.252,0.238 -0.538,0.433 -0.845,0.599 -0.033,0.018 -0.064,0.037 -0.098,0.054 0.023,0.04 0.04,0.077 0.065,0.118 0.146,0.23 0.318,0.461 0.531,0.687 0.365,0.384 0.843,0.734 1.433,1.012 0.698,0.33 1.551,0.554 2.619,0.554 0.209,0 0.427,-0.008 0.65,-0.024 0.705,-0.053 1.362,-0.221 1.979,-0.456 0.321,-0.122 0.633,-0.259 0.928,-0.418 0.015,-0.008 0.033,-0.015 0.049,-0.023 0.175,-0.097 0.343,-0.202 0.51,-0.309 0.114,-0.072 0.223,-0.147 0.332,-0.223 0.07,-0.049 0.137,-0.097 0.203,-0.148 2.013,-1.501 3.183,-3.618 3.183,-4.31 0,-0.692 -1.17,-2.808 -3.182,-4.309 m 4.638,33.123 c 5.4,0 9.463,-1.547 10.509,-2.594 1.284,-1.284 3.033,-6.793 2.474,-12.949 -2.986,2.06 -6.56,3.601 -10.62,3.907 -1.655,0.125 -3.163,0.083 -4.537,-0.092 -1.025,4.291 -3.671,7.784 -6.448,10.198 3.11,1.202 6.198,1.53 8.622,1.53 m -20.319,-1.227 c 1.967,1.389 3.753,2.14 4.609,2.14 0.857,0 2.643,-0.751 4.609,-2.14 0.2,-0.14 0.398,-0.29 0.6,-0.443 0.19,-0.144 0.378,-0.287 0.568,-0.443 2.705,-2.207 5.458,-5.563 6.491,-9.841 0.051,-0.214 0.119,-0.42 0.162,-0.64 0.041,-0.206 0.055,-0.423 0.087,-0.633 0.057,-0.371 0.122,-0.739 0.151,-1.122 0.297,-3.955 -0.718,-6.648 -1.905,-8.423 -1.06,0.602 -2.264,1.031 -3.596,1.131 -0.901,0.066 -1.702,0.005 -2.42,-0.142 -0.287,-0.06 -0.563,-0.129 -0.822,-0.216 -0.357,-0.119 -0.683,-0.267 -0.986,-0.429 -0.214,-0.114 -0.415,-0.235 -0.604,-0.366 -0.247,-0.171 -0.479,-0.351 -0.684,-0.544 -0.236,-0.22 -0.439,-0.452 -0.621,-0.69 -0.139,-0.181 -0.268,-0.365 -0.378,-0.549 -0.061,-0.104 -0.113,-0.207 -0.166,-0.31 -0.12,0.014 -0.238,0.032 -0.361,0.036 -0.042,0.001 -0.082,0.012 -0.125,0.012 -0.043,0 -0.082,-0.011 -0.125,-0.012 -0.132,-0.005 -0.26,-0.022 -0.389,-0.039 -0.057,0.111 -0.112,0.222 -0.18,0.335 -0.097,0.162 -0.216,0.319 -0.337,0.481 -0.142,0.188 -0.272,0.376 -0.449,0.557 -0.05,0.052 -0.114,0.106 -0.168,0.159 -0.2,0.188 -0.421,0.379 -0.688,0.564 -0.182,0.128 -0.385,0.25 -0.602,0.367 -0.292,0.156 -0.623,0.292 -0.98,0.414 -0.258,0.087 -0.533,0.162 -0.827,0.223 -0.703,0.148 -1.498,0.219 -2.422,0.148 -1.332,-0.099 -2.536,-0.529 -3.596,-1.13 -1.187,1.774 -2.203,4.468 -1.906,8.423 0.029,0.383 0.095,0.75 0.152,1.121 0.032,0.21 0.046,0.428 0.086,0.634 0.043,0.22 0.111,0.426 0.164,0.642 1.034,4.276 3.786,7.632 6.489,9.839 0.19,0.155 0.38,0.298 0.568,0.442 0.202,0.154 0.402,0.303 0.601,0.444 m -21.611,-1.368 c 1.046,1.046 5.11,2.594 10.511,2.594 2.423,0 5.511,-0.328 8.62,-1.529 -2.776,-2.414 -5.422,-5.907 -6.447,-10.196 -1.374,0.174 -2.882,0.215 -4.537,0.089 -4.06,-0.305 -7.634,-1.847 -10.62,-3.908 -0.56,6.157 1.188,11.665 2.473,12.95 m 10.511,-55.032 v 0 c -5.401,0 -9.464,1.548 -10.51,2.594 -1.284,1.284 -3.033,6.793 -2.473,12.949 2.985,-2.06 6.559,-3.602 10.619,-3.906 0.625,-0.048 1.231,-0.07 1.817,-0.07 h 0.002 c 0.972,0 1.86,0.08 2.711,0.193 1.019,-4.305 3.671,-7.81 6.455,-10.23 -3.109,-1.202 -6.197,-1.53 -8.621,-1.53 m 20.319,1.227 c -1.966,-1.39 -3.753,-2.14 -4.61,-2.14 -0.856,0 -2.642,0.75 -4.609,2.14 -0.199,0.14 -0.399,0.289 -0.6,0.443 -0.189,0.144 -0.378,0.287 -0.567,0.442 -2.706,2.209 -5.459,5.567 -6.492,9.847 -0.052,0.213 -0.119,0.418 -0.162,0.635 -0.04,0.204 -0.054,0.42 -0.085,0.629 -0.057,0.373 -0.124,0.741 -0.152,1.126 -0.298,3.955 0.717,6.648 1.904,8.422 1.06,-0.602 2.264,-1.03 3.596,-1.131 0.257,-0.019 0.506,-0.028 0.746,-0.028 0.614,0 1.168,0.063 1.671,0.166 0.292,0.06 0.568,0.134 0.825,0.22 0.367,0.124 0.692,0.274 0.99,0.434 0.216,0.117 0.42,0.238 0.601,0.366 0.264,0.183 0.488,0.372 0.686,0.558 0.054,0.054 0.117,0.108 0.168,0.16 0.176,0.182 0.307,0.37 0.449,0.557 0.122,0.162 0.24,0.32 0.338,0.482 0.068,0.114 0.123,0.224 0.18,0.336 0.128,-0.017 0.256,-0.035 0.389,-0.04 0.042,-10e-4 0.081,-0.012 0.124,-0.012 0.043,0 0.082,0.011 0.124,0.012 0.129,0.004 0.254,0.023 0.379,0.038 0.056,-0.11 0.119,-0.22 0.186,-0.332 0.102,-0.169 0.215,-0.334 0.342,-0.501 0.182,-0.239 0.384,-0.471 0.619,-0.694 0.209,-0.198 0.432,-0.39 0.685,-0.565 0.174,-0.121 0.379,-0.219 0.575,-0.325 0.307,-0.168 0.636,-0.314 0.996,-0.438 0.271,-0.092 0.54,-0.186 0.841,-0.249 0.515,-0.106 1.066,-0.173 1.674,-0.173 0.24,0 0.488,0.01 0.746,0.029 1.332,0.1 2.536,0.529 3.596,1.131 1.187,-1.775 2.203,-4.468 1.905,-8.423 -0.029,-0.384 -0.094,-0.751 -0.151,-1.122 -0.032,-0.21 -0.046,-0.427 -0.087,-0.632 -0.043,-0.224 -0.112,-0.433 -0.164,-0.651 -1.036,-4.274 -3.785,-7.626 -6.489,-9.831 -0.189,-0.156 -0.378,-0.299 -0.567,-0.443 -0.202,-0.154 -0.401,-0.303 -0.6,-0.443 m 21.61,1.368 c -1.046,-1.046 -5.11,-2.594 -10.509,-2.594 h -0.002 c -2.423,0 -5.511,0.328 -8.62,1.529 2.783,2.42 5.435,5.923 6.454,10.227 0.858,-0.112 1.749,-0.19 2.715,-0.19 h 10e-4 c 0.586,0 1.189,0.022 1.814,0.07 4.06,0.305 7.634,1.847 10.62,3.908 0.56,-6.157 -1.188,-11.665 -2.473,-12.95 m 12.15,26.22 c 0,2.514 -3.112,8.23 -8.454,12.391 0.834,6.72 -1.007,12.963 -2.785,14.741 -1.46,1.46 -6.132,2.971 -11.421,2.971 -2.722,0 -6.24,-0.415 -9.747,-1.903 -2.375,1.81 -4.682,2.815 -5.963,2.815 -1.282,0 -3.589,-1.005 -5.964,-2.816 -3.506,1.489 -7.024,1.903 -9.745,1.903 -5.29,0 -9.963,-1.511 -11.424,-2.972 -1.777,-1.778 -3.619,-8.021 -2.783,-14.741 -5.342,-4.161 -8.454,-9.878 -8.454,-12.392 0,-2.513 3.112,-8.23 8.454,-12.391 -0.834,-6.72 1.007,-12.962 2.784,-14.74 1.461,-1.46 6.133,-2.971 11.423,-2.971 h 0.001 c 2.721,0 6.238,0.413 9.745,1.903 2.375,-1.81 4.682,-2.817 5.963,-2.817 1.282,0 3.589,1.007 5.964,2.817 3.506,-1.489 7.024,-1.903 9.745,-1.903 h 0.002 c 5.288,0 9.961,1.511 11.422,2.972 1.777,1.778 3.619,8.021 2.783,14.741 5.342,4.162 8.454,9.878 8.454,12.392"
             style="fill:#366928;fill-opacity:1;fill-rule:nonzero;stroke:none"
             id="path30"
             inkscape:connector-curvature="0" /></g><g
           id="g32"
           transform="translate(119.5439,93.5713)"><path
             d="M 0,0 C 0,1.039 -0.09,2.002 -0.27,2.883 -0.453,3.77 -0.774,4.533 -1.24,5.175 -1.702,5.822 -2.327,6.33 -3.124,6.703 -3.914,7.077 -4.91,7.262 -6.107,7.262 H -8.754 V -7.467 h 2.747 c 1.178,0 2.154,0.187 2.936,0.561 0.78,0.376 1.397,0.892 1.848,1.545 0.454,0.655 0.77,1.443 0.953,2.36 C -0.09,-2.086 0,-1.084 0,0 m -11.878,-12.01 c -0.812,0 -1.356,0.159 -1.628,0.491 -0.27,0.328 -0.408,0.854 -0.408,1.575 V 9.673 c 0,0.721 0.138,1.252 0.408,1.595 0.272,0.338 0.816,0.51 1.628,0.51 h 6.346 c 1.992,0 3.677,-0.318 5.056,-0.951 C 0.903,10.193 2.025,9.344 2.886,8.281 3.744,7.218 4.367,5.967 4.754,4.533 5.138,3.094 5.329,1.583 5.329,0 5.329,-1.562 5.159,-3.066 4.818,-4.515 4.479,-5.96 3.903,-7.238 3.089,-8.347 2.274,-9.456 1.193,-10.343 -0.152,-11.013 -1.498,-11.68 -3.168,-12.01 -5.158,-12.01 Z"
             style="fill:#366928;fill-opacity:1;fill-rule:nonzero;stroke:none"
             id="path34"
             inkscape:connector-curvature="0" /></g><g
           id="g36"
           transform="translate(133.6631,82.1719)"><path
             d="M 0,0 C 0,-0.251 -0.047,-0.419 -0.136,-0.495 -0.227,-0.574 -0.433,-0.611 -0.748,-0.611 H -4.21 c -0.249,0 -0.43,0.037 -0.542,0.116 -0.114,0.076 -0.171,0.244 -0.171,0.495 v 16.59 c 0,0.251 0.057,0.417 0.171,0.493 0.112,0.08 0.293,0.118 0.542,0.118 h 3.462 c 0.315,0 0.521,-0.038 0.612,-0.118 C -0.047,17.007 0,16.841 0,16.59 Z m 0.438,21.851 c 0,-0.791 -0.276,-1.453 -0.83,-1.984 -0.554,-0.531 -1.227,-0.798 -2.019,-0.798 -0.771,0 -1.43,0.267 -1.985,0.798 -0.554,0.531 -0.833,1.193 -0.833,1.984 0,0.407 0.074,0.782 0.223,1.122 0.146,0.338 0.349,0.631 0.61,0.879 0.259,0.249 0.56,0.449 0.901,0.596 0.338,0.146 0.698,0.221 1.084,0.221 0.384,0 0.753,-0.075 1.102,-0.221 0.354,-0.147 0.656,-0.347 0.917,-0.596 0.26,-0.248 0.463,-0.541 0.612,-0.879 0.146,-0.34 0.218,-0.715 0.218,-1.122"
             style="fill:#366928;fill-opacity:1;fill-rule:nonzero;stroke:none"
             id="path38"
             inkscape:connector-curvature="0" /></g><g
           id="g40"
           transform="translate(148.7627,93.3647)"><path
             d="m 0,0 5.26,-11.128 c 0.18,-0.454 0.011,-0.676 -0.509,-0.676 H 0.814 c -0.27,0 -0.481,0.037 -0.626,0.116 -0.149,0.076 -0.279,0.254 -0.393,0.524 l -3.221,7.265 -2.58,-2.92 v -0.865 -1.19 c 0,-0.418 -0.005,-0.828 -0.016,-1.237 -0.014,-0.405 -0.018,-0.758 -0.018,-1.053 0,-0.249 -0.039,-0.418 -0.119,-0.508 -0.08,-0.089 -0.276,-0.132 -0.595,-0.132 h -3.494 c -0.477,0 -0.714,0.213 -0.714,0.64 v 23.555 c 0,0.246 0.057,0.411 0.171,0.49 0.112,0.079 0.294,0.121 0.543,0.121 h 3.53 c 0.317,0 0.507,-0.033 0.575,-0.104 0.07,-0.067 0.103,-0.239 0.103,-0.507 V -0.163 l 0.137,-0.074 4.851,5.772 c 0.182,0.179 0.333,0.304 0.459,0.373 0.125,0.069 0.343,0.1 0.661,0.1 h 4.14 C 4.523,6.008 4.701,5.936 4.734,5.791 4.769,5.641 4.705,5.479 4.549,5.297 Z"
             style="fill:#366928;fill-opacity:1;fill-rule:nonzero;stroke:none"
             id="path42"
             inkscape:connector-curvature="0" /></g><g
           id="g44"
           transform="translate(167.4258,82.0405)"><path
             d="m 0,0 c 0,-0.1 -0.124,-0.19 -0.371,-0.282 -0.838,-0.249 -1.676,-0.402 -2.512,-0.473 -0.837,-0.067 -1.549,-0.101 -2.138,-0.101 -1.945,0 -3.338,0.413 -4.174,1.239 -0.836,0.825 -1.255,2.044 -1.255,3.647 v 9.676 h -2.377 c -0.249,0 -0.406,0.06 -0.476,0.182 -0.067,0.127 -0.1,0.277 -0.1,0.459 v 1.832 c 0,0.228 0.027,0.38 0.084,0.461 0.057,0.079 0.21,0.152 0.459,0.219 l 2.509,0.578 0.24,3.187 c 0.022,0.273 0.096,0.466 0.22,0.58 0.124,0.112 0.31,0.203 0.56,0.273 l 3.12,1.015 c 0.205,0.047 0.368,0.022 0.494,-0.068 0.126,-0.091 0.186,-0.271 0.186,-0.543 v -4.548 h 3.735 c 0.248,0 0.4,-0.048 0.455,-0.153 0.058,-0.1 0.087,-0.241 0.087,-0.421 v -2.412 c 0,-0.228 -0.023,-0.389 -0.068,-0.494 -0.046,-0.099 -0.203,-0.147 -0.474,-0.147 H -5.531 V 5.054 c 0,-0.658 0.165,-1.114 0.495,-1.361 0.325,-0.251 0.818,-0.372 1.474,-0.372 0.158,0 0.351,0.01 0.576,0.032 0.226,0.022 0.459,0.047 0.697,0.068 0.236,0.021 0.468,0.045 0.696,0.066 0.225,0.023 0.417,0.046 0.577,0.069 0.36,0.067 0.553,-0.046 0.576,-0.337 L -0.033,0.387 C -0.011,0.234 0,0.103 0,0"
             style="fill:#366928;fill-opacity:1;fill-rule:nonzero;stroke:none"
             id="path46"
             inkscape:connector-curvature="0" /></g><g
           id="g48"
           transform="translate(179.3369,89.6357)"><path
             d="m 0,0 h -2.679 c -0.318,0 -0.658,-0.022 -1.02,-0.067 -0.36,-0.047 -0.694,-0.154 -1,-0.327 -0.306,-0.166 -0.56,-0.412 -0.763,-0.726 -0.204,-0.317 -0.306,-0.747 -0.306,-1.289 0,-0.796 0.267,-1.349 0.797,-1.665 0.533,-0.315 1.251,-0.477 2.157,-0.477 0.135,0 0.316,0.006 0.542,0.018 0.226,0.012 0.469,0.035 0.731,0.071 0.258,0.033 0.524,0.079 0.798,0.133 0.269,0.057 0.517,0.134 0.743,0.221 z m 4.923,-5.871 c 0,-0.296 -0.04,-0.544 -0.12,-0.75 C 4.725,-6.823 4.528,-7.01 4.21,-7.194 3.691,-7.442 3.134,-7.649 2.536,-7.804 1.937,-7.963 1.328,-8.089 0.705,-8.179 c -0.62,-0.088 -1.248,-0.157 -1.878,-0.203 -0.632,-0.045 -1.231,-0.07 -1.795,-0.07 -1.534,0 -2.805,0.149 -3.808,0.443 -1.006,0.294 -1.816,0.694 -2.423,1.207 -0.609,0.51 -1.038,1.103 -1.286,1.797 -0.249,0.687 -0.372,1.428 -0.372,2.223 0,0.882 0.146,1.688 0.439,2.425 0.295,0.734 0.736,1.374 1.325,1.917 0.588,0.543 1.327,0.969 2.223,1.274 0.891,0.305 1.951,0.46 3.171,0.46 h 3.734 v 0.54 C 0.035,4.152 0,4.455 -0.065,4.75 -0.133,5.044 -0.276,5.299 -0.491,5.512 -0.706,5.729 -1.004,5.907 -1.388,6.042 -1.774,6.177 -2.283,6.243 -2.917,6.243 -3.258,6.243 -3.642,6.228 -4.07,6.194 -4.501,6.159 -4.933,6.112 -5.359,6.056 -5.791,6.001 -6.21,5.933 -6.616,5.853 -7.022,5.774 -7.386,5.69 -7.702,5.599 -7.997,5.53 -8.199,5.53 -8.313,5.599 -8.427,5.667 -8.505,5.815 -8.551,6.042 l -0.542,2.374 c -0.069,0.25 -0.075,0.424 -0.016,0.527 0.055,0.102 0.173,0.183 0.356,0.254 1.019,0.36 2.086,0.621 3.205,0.78 1.121,0.158 2.235,0.235 3.344,0.235 2.459,0 4.262,-0.523 5.409,-1.574 C 4.35,7.583 4.923,6.027 4.923,3.969 Z"
             style="fill:#366928;fill-opacity:1;fill-rule:nonzero;stroke:none"
             id="path50"
             inkscape:connector-curvature="0" /></g><g
           id="g52"
           transform="translate(192.6572,81.6768)"><path
             d="m 0,0 c -0.081,-0.079 -0.276,-0.116 -0.594,-0.116 h -3.494 c -0.25,0 -0.432,0.037 -0.544,0.116 -0.113,0.076 -0.17,0.244 -0.17,0.495 v 14.487 c 0,0.77 0.125,1.379 0.373,1.833 0.25,0.455 0.826,0.781 1.733,0.986 0.201,0.044 0.491,0.084 0.864,0.117 0.373,0.038 0.78,0.069 1.224,0.103 0.439,0.034 0.886,0.062 1.337,0.085 0.454,0.02 0.837,0.031 1.155,0.031 1.404,0 2.618,-0.118 3.648,-0.37 1.028,-0.251 1.93,-0.659 2.697,-1.224 0.749,0.499 1.658,0.894 2.733,1.191 1.074,0.292 2.155,0.437 3.242,0.437 1.468,0 2.724,-0.198 3.766,-0.609 1.039,-0.406 1.889,-0.985 2.546,-1.731 0.654,-0.745 1.134,-1.634 1.443,-2.664 0.305,-1.028 0.456,-2.154 0.456,-3.376 V 0.495 C 22.415,0.244 22.37,0.076 22.28,0 22.189,-0.079 21.986,-0.116 21.668,-0.116 h -3.459 c -0.25,0 -0.431,0.037 -0.546,0.116 -0.111,0.082 -0.168,0.244 -0.168,0.495 v 8.743 c 0,1.539 -0.272,2.72 -0.82,3.536 C 16.13,13.59 15.116,14 13.64,14 c -0.433,0 -0.96,-0.058 -1.586,-0.171 -0.626,-0.113 -1.12,-0.264 -1.482,-0.442 0.203,-0.569 0.344,-1.175 0.424,-1.82 0.079,-0.646 0.119,-1.344 0.119,-2.091 V 0.495 C 11.115,0.244 11.07,0.082 10.98,0 10.89,-0.079 10.688,-0.116 10.375,-0.116 H 6.902 C 6.655,-0.116 6.476,-0.079 6.362,0 6.25,0.082 6.195,0.244 6.195,0.495 v 9.184 c 0,0.703 -0.057,1.328 -0.171,1.871 -0.113,0.545 -0.312,1.004 -0.593,1.376 -0.285,0.375 -0.678,0.664 -1.189,0.867 -0.509,0.204 -1.159,0.306 -1.949,0.306 -0.251,0 -0.595,-0.011 -1.037,-0.03 C 0.815,14.042 0.436,13.997 0.119,13.932 V 0.495 C 0.119,0.244 0.08,0.082 0,0"
             style="fill:#366928;fill-opacity:1;fill-rule:nonzero;stroke:none"
             id="path54"
             inkscape:connector-curvature="0" /></g><g
           id="g56"
           transform="translate(229.9707,90.4497)"><path
             d="m 0,0 c 0,0.769 -0.056,1.471 -0.171,2.103 -0.111,0.633 -0.304,1.176 -0.576,1.63 -0.27,0.451 -0.624,0.81 -1.053,1.068 -0.429,0.262 -0.962,0.391 -1.594,0.391 -1.2,0 -2.087,-0.46 -2.665,-1.374 -0.577,-0.919 -0.867,-2.155 -0.867,-3.716 0,-1.696 0.268,-2.987 0.799,-3.869 0.532,-0.882 1.409,-1.321 2.63,-1.321 0.633,0 1.172,0.129 1.612,0.389 0.441,0.261 0.804,0.62 1.088,1.084 0.281,0.466 0.486,1.002 0.61,1.61 C -0.062,-1.394 0,-0.725 0,0 m 5.122,0.102 c 0,-2.987 -0.711,-5.292 -2.135,-6.924 -1.427,-1.63 -3.598,-2.444 -6.517,-2.444 -2.94,0 -5.091,0.814 -6.449,2.444 -1.356,1.632 -2.036,3.916 -2.036,6.853 0,1.451 0.199,2.759 0.595,3.921 0.395,1.167 0.961,2.145 1.698,2.94 0.733,0.791 1.627,1.399 2.678,1.831 1.054,0.43 2.246,0.641 3.583,0.641 2.85,0 4.994,-0.82 6.429,-2.457 C 4.406,5.263 5.122,3 5.122,0.102"
             style="fill:#366928;fill-opacity:1;fill-rule:nonzero;stroke:none"
             id="path58"
             inkscape:connector-curvature="0" /></g><g
           id="g60"
           transform="translate(120.7666,72.6182)"><path
             d="M 0,0 C 0,0.253 0.049,0.41 0.15,0.477 0.253,0.546 0.417,0.578 0.645,0.578 H 2.478 C 2.725,0.578 2.895,0.546 2.986,0.477 3.075,0.41 3.12,0.253 3.12,0 v -22.597 c 0,-0.251 -0.045,-0.41 -0.134,-0.477 -0.091,-0.066 -0.261,-0.1 -0.508,-0.1 H 0.645 c -0.228,0 -0.392,0.034 -0.495,0.1 C 0.049,-23.007 0,-22.848 0,-22.597 v 10.588 h -11.945 v -10.588 c 0,-0.251 -0.047,-0.41 -0.138,-0.477 -0.092,-0.066 -0.264,-0.1 -0.516,-0.1 h -1.886 c -0.205,0 -0.366,0.034 -0.48,0.1 -0.115,0.067 -0.172,0.226 -0.172,0.477 V 0 c 0,0.253 0.057,0.41 0.172,0.477 0.114,0.069 0.275,0.101 0.48,0.101 h 1.886 c 0.252,0 0.424,-0.032 0.516,-0.101 C -11.992,0.41 -11.945,0.253 -11.945,0 V -9.294 H 0 Z"
             style="fill:#366928;fill-opacity:1;fill-rule:nonzero;stroke:none"
             id="path62"
             inkscape:connector-curvature="0" /></g><g
           id="g64"
           transform="translate(139.9736,58.332)"><path
             d="m 0,0 c 0,0.884 -0.068,1.74 -0.204,2.563 -0.134,0.826 -0.384,1.551 -0.744,2.17 -0.364,0.624 -0.863,1.133 -1.495,1.512 -0.634,0.384 -1.448,0.576 -2.444,0.576 -0.859,0 -1.605,-0.18 -2.24,-0.544 C -7.76,5.919 -8.281,5.431 -8.688,4.823 -9.093,4.209 -9.399,3.496 -9.603,2.68 -9.806,1.869 -9.908,1.009 -9.908,0.105 c 0,-1.021 0.079,-1.955 0.236,-2.802 0.158,-0.847 0.43,-1.574 0.814,-2.174 0.385,-0.596 0.889,-1.067 1.512,-1.404 0.621,-0.342 1.407,-0.511 2.359,-0.511 0.951,0 1.747,0.193 2.39,0.578 0.646,0.384 1.16,0.895 1.544,1.524 0.386,0.634 0.658,1.358 0.816,2.175 C -0.078,-1.694 0,-0.856 0,0 m 2.953,0.105 c 0,-3.029 -0.682,-5.347 -2.05,-6.957 -1.365,-1.606 -3.346,-2.411 -5.941,-2.411 -2.554,0 -4.494,0.779 -5.826,2.34 -1.333,1.559 -1.999,3.87 -1.999,6.923 0,1.498 0.199,2.817 0.594,3.969 0.395,1.159 0.949,2.129 1.66,2.922 0.71,0.795 1.553,1.391 2.522,1.797 0.972,0.406 2.022,0.613 3.149,0.613 2.574,0 4.533,-0.815 5.876,-2.446 C 2.282,5.23 2.953,2.978 2.953,0.105"
             style="fill:#366928;fill-opacity:1;fill-rule:nonzero;stroke:none"
             id="path66"
             inkscape:connector-curvature="0" /></g><g
           id="g68"
           transform="translate(145.9805,67.2095)"><path
             d="m 0,0 c 0.091,0.056 0.226,0.085 0.408,0.085 h 1.865 c 0.182,0 0.318,-0.029 0.407,-0.091 0.092,-0.053 0.137,-0.193 0.137,-0.419 v -9.082 c 0,-1.021 0.069,-1.909 0.204,-2.672 0.133,-0.761 0.389,-1.386 0.763,-1.886 0.372,-0.499 0.904,-0.863 1.594,-1.104 0.691,-0.238 1.591,-0.358 2.697,-0.358 0.251,0 0.663,0.015 1.241,0.048 0.576,0.036 1.238,0.109 1.985,0.224 v 14.83 c 0,0.226 0.039,0.366 0.12,0.419 0.077,0.062 0.219,0.091 0.424,0.091 h 1.866 c 0.179,0 0.315,-0.029 0.405,-0.085 0.092,-0.059 0.138,-0.199 0.138,-0.425 v -14.83 c 0,-1.448 -0.715,-2.313 -2.14,-2.579 -0.315,-0.046 -0.666,-0.085 -1.051,-0.12 -0.385,-0.031 -0.771,-0.059 -1.155,-0.085 -0.385,-0.02 -0.757,-0.037 -1.118,-0.051 -0.363,-0.014 -0.679,-0.019 -0.95,-0.019 -1.471,0 -2.709,0.155 -3.717,0.46 -1.006,0.303 -1.827,0.793 -2.461,1.463 -0.632,0.662 -1.09,1.537 -1.373,2.61 -0.284,1.074 -0.426,2.381 -0.426,3.918 v 9.233 c 0,0.226 0.046,0.366 0.137,0.425"
             style="fill:#366928;fill-opacity:1;fill-rule:nonzero;stroke:none"
             id="path70"
             inkscape:connector-curvature="0" /></g><g
           id="g72"
           transform="translate(176.0459,54.2598)"><path
             d="m 0,0 c 0,-0.88 -0.163,-1.645 -0.491,-2.289 -0.329,-0.645 -0.781,-1.179 -1.357,-1.614 -0.578,-0.428 -1.256,-0.751 -2.037,-0.963 -0.78,-0.215 -1.611,-0.325 -2.494,-0.325 -1.064,0 -2.194,0.102 -3.395,0.306 -1.198,0.203 -2.261,0.554 -3.189,1.052 -0.136,0.071 -0.232,0.158 -0.289,0.273 -0.057,0.112 -0.039,0.257 0.052,0.438 l 0.644,1.394 c 0.067,0.179 0.153,0.293 0.257,0.339 0.1,0.044 0.264,0.02 0.49,-0.067 0.905,-0.431 1.838,-0.741 2.799,-0.934 0.962,-0.196 1.838,-0.288 2.631,-0.288 1.086,0 1.944,0.221 2.579,0.663 0.632,0.438 0.95,1.068 0.95,1.882 0,0.836 -0.363,1.494 -1.086,1.969 -0.723,0.473 -1.752,0.949 -3.087,1.424 -0.952,0.338 -1.772,0.684 -2.461,1.019 -0.691,0.335 -1.256,0.705 -1.696,1.101 -0.442,0.398 -0.764,0.844 -0.97,1.342 -0.201,0.494 -0.304,1.085 -0.304,1.762 0,1.431 0.513,2.597 1.545,3.515 1.029,0.917 2.528,1.374 4.496,1.374 0.929,0 1.825,-0.074 2.697,-0.223 0.873,-0.145 1.748,-0.399 2.631,-0.763 0.272,-0.133 0.36,-0.349 0.272,-0.641 L -1.456,10.15 C -1.526,10.012 -1.6,9.946 -1.68,9.946 c -0.079,0 -0.175,0.024 -0.288,0.066 -0.905,0.337 -1.692,0.565 -2.357,0.679 -0.67,0.113 -1.387,0.168 -2.156,0.168 -1.018,0 -1.787,-0.213 -2.307,-0.641 -0.523,-0.433 -0.78,-0.951 -0.78,-1.563 0,-0.385 0.074,-0.719 0.22,-0.999 C -9.2,7.372 -8.971,7.112 -8.654,6.875 -8.336,6.635 -7.918,6.404 -7.397,6.178 -6.876,5.953 -6.255,5.704 -5.53,5.429 -4.83,5.159 -4.145,4.876 -3.478,4.585 -2.811,4.289 -2.22,3.93 -1.714,3.514 -1.204,3.096 -0.79,2.602 -0.474,2.037 -0.157,1.473 0,0.793 0,0"
             style="fill:#366928;fill-opacity:1;fill-rule:nonzero;stroke:none"
             id="path74"
             inkscape:connector-curvature="0" /></g><g
           id="g76"
           transform="translate(190.5039,59.8594)"><path
             d="m 0,0 c 0,0.701 -0.069,1.375 -0.205,2.022 -0.138,0.642 -0.381,1.205 -0.732,1.693 -0.352,0.489 -0.83,0.874 -1.429,1.158 -0.602,0.279 -1.359,0.421 -2.266,0.421 -0.749,0 -1.413,-0.145 -1.992,-0.439 C -7.203,4.562 -7.692,4.17 -8.088,3.68 -8.485,3.194 -8.798,2.636 -9.027,2.005 -9.254,1.369 -9.389,0.701 -9.433,0 Z m -4.649,7.773 c 1.29,0 2.403,-0.183 3.344,-0.544 C -0.369,6.867 0.402,6.353 1.001,5.685 1.601,5.02 2.049,4.229 2.341,3.312 2.635,2.39 2.78,1.379 2.78,0.272 2.78,-0.27 2.715,-0.715 2.58,-1.049 2.442,-1.393 2.258,-1.656 2.019,-1.849 1.782,-2.042 1.512,-2.177 1.204,-2.257 0.898,-2.333 0.578,-2.374 0.236,-2.374 h -9.772 c 0,-1.063 0.148,-1.968 0.444,-2.717 0.294,-0.743 0.684,-1.349 1.174,-1.814 0.487,-0.463 1.056,-0.801 1.703,-1 0.646,-0.205 1.346,-0.307 2.095,-0.307 0.749,0 1.487,0.097 2.213,0.289 0.726,0.194 1.33,0.416 1.804,0.662 0.273,0.158 0.485,0.1 0.646,-0.17 L 1.255,-8.857 C 1.413,-9.174 1.346,-9.4 1.053,-9.533 c -0.817,-0.5 -1.692,-0.831 -2.632,-1.005 -0.939,-0.167 -1.86,-0.253 -2.768,-0.253 -1.265,0 -2.401,0.181 -3.409,0.543 -1.005,0.366 -1.859,0.918 -2.561,1.665 -0.701,0.747 -1.239,1.692 -1.612,2.85 -0.374,1.153 -0.56,2.533 -0.56,4.14 0,1.494 0.198,2.823 0.594,3.983 0.395,1.17 0.946,2.148 1.646,2.938 0.701,0.797 1.527,1.4 2.477,1.816 0.95,0.418 1.991,0.629 3.123,0.629"
             style="fill:#366928;fill-opacity:1;fill-rule:nonzero;stroke:none"
             id="path78"
             inkscape:connector-curvature="0" /></g></g><rect
         style="fill:none;stroke-width:0.75"
         id="rect80"
         width="222.27319"
         height="67.812172"
         x="16.228552"
         y="-111.86108"
         transform="scale(1,-1)" /></g></g></svg>