<?xml version="1.0" encoding="UTF-8" standalone="no"?>
<!-- Created with Inkscape (http://www.inkscape.org/) -->

<svg
   xmlns:dc="http://purl.org/dc/elements/1.1/"
   xmlns:cc="http://creativecommons.org/ns#"
   xmlns:rdf="http://www.w3.org/1999/02/22-rdf-syntax-ns#"
   xmlns:svg="http://www.w3.org/2000/svg"
   xmlns="http://www.w3.org/2000/svg"
   xmlns:sodipodi="http://sodipodi.sourceforge.net/DTD/sodipodi-0.dtd"
   xmlns:inkscape="http://www.inkscape.org/namespaces/inkscape"
   width="20.10463mm"
   height="21.455326mm"
   viewBox="0 0 20.10463 21.455326"
   version="1.1"
   id="svg6035"
   inkscape:version="0.92.3 (2405546, 2018-03-11)"
   sodipodi:docname="partner2.svg">
  <defs
     id="defs6029" />
  <sodipodi:namedview
     id="base"
     pagecolor="#ffffff"
     bordercolor="#666666"
     borderopacity="1.0"
     inkscape:pageopacity="0.0"
     inkscape:pageshadow="2"
     inkscape:zoom="3.959798"
     inkscape:cx="63.048079"
     inkscape:cy="38.672306"
     inkscape:document-units="mm"
     inkscape:current-layer="layer1"
     showgrid="false"
     fit-margin-top="0"
     fit-margin-left="0"
     fit-margin-right="0"
     fit-margin-bottom="0"
     inkscape:window-width="1366"
     inkscape:window-height="715"
     inkscape:window-x="-8"
     inkscape:window-y="-8"
     inkscape:window-maximized="1" />
  <metadata
     id="metadata6032">
    <rdf:RDF>
      <cc:Work
         rdf:about="">
        <dc:format>image/svg+xml</dc:format>
        <dc:type
           rdf:resource="http://purl.org/dc/dcmitype/StillImage" />
        <dc:title></dc:title>
      </cc:Work>
    </rdf:RDF>
  </metadata>
  <g
     inkscape:label="Layer 1"
     inkscape:groupmode="layer"
     id="layer1"
     transform="translate(-87.465543,-71.58186)">
    <path
       d="m 101.23181,75.50669 c 1.38245,1.403879 2.02459,2.637102 2.13519,4.382293 0.54425,-0.06879 1.05013,0.04392 1.44727,0.582613 0.23336,0.318294 0.40931,0.757237 0.55589,1.256506 0.46937,-1.851819 0.58156,-3.779837 0.70988,-6.086475 -0.036,0.210079 -0.11377,0.375973 -0.2421,0.494771 -0.7694,0.708819 -3.06281,-0.472811 -4.89452,-0.918898 0.0979,0.09498 0.19447,0.191294 0.28839,0.28919 z"
       id="path4901"
       inkscape:connector-curvature="0"
       style="fill:#8e979b;stroke-width:0.26458332" />
    <path
       d="m 103.3834,80.318667 c -0.002,-0.148432 -0.008,-0.291042 -0.0164,-0.429684 -0.1106,-1.745456 -0.753,-2.978679 -2.13519,-4.382293 -0.0937,-0.0979 -0.1905,-0.19394 -0.28813,-0.288925 -1.359691,-1.321594 -2.962802,-2.380986 -4.879973,-3.635905 0.148431,0.128588 0.243946,0.274109 0.279929,0.434711 0.224896,1.019704 -1.943364,2.415646 -3.245114,3.775604 0.129116,-0.03572 0.259291,-0.07012 0.390789,-0.10451 1.909763,-0.486834 3.296444,-0.430742 4.856163,0.343693 0.123825,0.06271 0.248973,0.127 0.375973,0.198702 1.730113,0.953823 3.064673,2.416705 2.931323,3.995473 -0.006,0.06059 -0.0122,0.121973 -0.0209,0.180446 -0.21908,1.478227 -1.636717,2.537619 -1.12343,3.657864 0.14076,0.303213 0.40931,0.581554 0.71597,0.858044 0.0582,-0.02222 0.11615,-0.04842 0.17383,-0.07541 1.43139,-0.680244 2.01295,-2.551642 1.98517,-4.527814 z"
       id="path4903"
       inkscape:connector-curvature="0"
       style="fill:#00b7ee;stroke-width:0.26458332" />
    <path
       d="m 107.02248,86.424191 c -0.99509,-0.317235 -1.12289,-2.890573 -1.65232,-4.696089 -0.0341,0.13335 -0.0688,0.265377 -0.10663,0.39661 -0.5281,1.891506 -1.27582,3.065198 -2.72547,4.037013 -0.11536,0.07832 -0.23468,0.15531 -0.36036,0.2286 -1.6973,1.016 -3.62638,1.444889 -4.915959,0.546629 -0.05133,-0.03466 -0.100278,-0.07355 -0.148432,-0.111125 -1.169987,-0.940594 -1.381654,-2.699544 -2.613554,-2.812786 -0.33311,-0.02831 -0.705644,0.06456 -1.095639,0.191559 -0.0087,0.05874 -0.01588,0.120385 -0.02037,0.180445 -0.133086,1.57824 1.200414,3.040857 2.931847,3.99468 0.126471,0.07223 0.251619,0.137054 0.375709,0.19976 1.560248,0.776023 2.945871,0.829733 4.856428,0.343429 0.13044,-0.03254 0.26061,-0.06906 0.38973,-0.104775 1.83806,-0.516202 3.57214,-1.383241 5.63271,-2.430198 -0.19738,0.07435 -0.38047,0.08837 -0.54769,0.03625 z"
       id="path4905"
       inkscape:connector-curvature="0"
       style="fill:#fb007a;stroke-width:0.26458332" />
    <path
       d="m 96.691563,88.579487 c -0.215106,0.503502 -0.564885,0.883179 -1.22555,0.957263 -0.393435,0.04498 -0.865452,-0.02064 -1.373452,-0.144198 1.365515,1.32715 2.976034,2.388923 4.89294,3.644635 -0.155046,-0.132292 -0.254529,-0.28231 -0.292629,-0.447146 -0.224896,-1.016529 1.944418,-2.411148 3.245118,-3.772164 -0.12912,0.03598 -0.2593,0.07223 -0.38974,0.104775 -1.910815,0.486568 -3.296438,0.432858 -4.856687,-0.343165 z"
       id="path4907"
       inkscape:connector-curvature="0"
       style="fill:#8e979b;stroke-width:0.26458332" />
    <path
       d="m 92.497918,78.44621 c -0.329407,-0.436827 -0.481807,-0.928423 -0.214313,-1.536435 0.15875,-0.363538 0.453496,-0.740569 0.814652,-1.118129 -1.837266,0.519377 -3.572139,1.383241 -5.632714,2.430727 0.198702,-0.07435 0.382058,-0.08837 0.547687,-0.03466 0.995098,0.315384 1.124479,2.888457 1.653117,4.696619 0.03334,-0.135467 0.06932,-0.267229 0.105833,-0.399256 0.528108,-1.890713 1.275556,-3.063875 2.725738,-4.038865 z"
       id="path4909"
       inkscape:connector-curvature="0"
       style="fill:#8e979b;stroke-width:0.26458332" />
    <path
       d="m 97.775562,77.672569 c -1.289844,-0.896144 -3.219186,-0.468577 -4.917017,0.542925 -0.124884,0.07435 -0.244475,0.152135 -0.360363,0.230716 -1.450181,0.97499 -2.197629,2.148152 -2.725473,4.039129 -0.03678,0.132027 -0.0725,0.26379 -0.105833,0.399256 -0.469106,1.850232 -0.58129,3.781161 -0.709613,6.08383 0.03466,-0.210609 0.112448,-0.376503 0.242094,-0.494507 0.769673,-0.709083 3.063081,0.472811 4.893469,0.918898 -0.09816,-0.09525 -0.193146,-0.191558 -0.288131,-0.289454 -1.382448,-1.403085 -2.023534,-2.636837 -2.134129,-4.3815 -0.009,-0.139965 -0.01561,-0.282046 -0.01746,-0.428625 -0.02805,-1.976437 0.554302,-3.849158 1.985433,-4.529137 0.05715,-0.02672 0.115358,-0.0508 0.173302,-0.07488 1.399646,-0.542396 3.030537,0.15875 3.724275,-0.859102 0.194469,-0.271727 0.302948,-0.641615 0.388408,-1.044575 -0.04868,-0.0381 -0.09842,-0.07541 -0.148959,-0.112977 z"
       id="path4911"
       inkscape:connector-curvature="0"
       style="fill:#e8c205;stroke-width:0.26458332" />
  </g>
</svg>
