<svg xmlns="http://www.w3.org/2000/svg" xmlns:xlink="http://www.w3.org/1999/xlink" width="1000" height="1035" viewBox="0 0 1000 1035"><svg width="512" height="512" viewBox="0 0 307.054 307.054" id="caretup" y="0"><path d="M302.445 205.788L164.63 67.959c-6.136-6.13-16.074-6.13-22.203 0L4.597 205.788c-6.129 6.132-6.129 16.069 0 22.201l11.101 11.101c6.129 6.136 16.076 6.136 22.209 0l115.62-115.626L269.151 239.09c6.128 6.136 16.07 6.136 22.201 0l11.101-11.101c6.136-6.139 6.136-16.069-.008-22.201z" fill="#FFF"></path></svg><svg width="1000" height="504.3055798996579" viewBox="0 0 921.96599 464.95256" id="logo" y="512"><defs><linearGradient id="b"><stop offset="0" stop-color="#06f"></stop><stop offset="1" stop-color="red"></stop></linearGradient><linearGradient id="a"><stop offset="0" stop-color="#06f"></stop><stop offset="1" stop-color="#06f" stop-opacity="0"></stop></linearGradient></defs><g transform="translate(-26.901 -240.15)"><g transform="translate(19.532 58.271)"><path d="M898.791 535.129a4.927 4.927 0 0 0 2.622-6.68l-1.886-3.984a3091.82 3091.82 0 0 1-2.231-4.697l-3.396-6.916c-1.222-2.459-2.521-5.076-3.893-7.834-.695-1.434-1.378-2.617-2.093-3.963l-2.186-4.037c-1.497-2.744-3.028-5.613-4.671-8.551a30131.59 30131.59 0 0 1-5.254-9.002l-2.749-4.684-2.947-4.723-6.112-9.706c-4.377-6.45-8.734-13.196-13.597-19.761-1.194-1.653-2.395-3.312-3.598-4.976l-1.81-2.494-1.884-2.453-7.58-9.812c-2.575-3.237-5.239-6.406-7.85-9.587-1.32-1.58-2.599-3.183-3.946-4.727l-4.04-4.603c-1.343-1.523-2.68-3.043-4.011-4.554a134.141 134.141 0 0 0-4.033-4.45l-8.06-8.585c-2.65-2.81-5.394-5.451-8.005-8.091-2.63-2.626-5.186-5.205-7.796-7.6l-7.521-7.04c-2.418-2.279-4.887-4.349-7.187-6.399l-6.656-5.819-6.157-5.073-5.416-4.442c-1.676-1.367-3.279-2.552-4.692-3.657a32101.34 32101.34 0 0 1-5.177-3.973 4.925 4.925 0 0 0-6.798.776l-86.204 104.346a4.925 4.925 0 0 0 .327 6.64c.721.712 1.553 1.536 2.489 2.463.897.901 1.925 1.855 2.979 2.969l3.409 3.604 3.88 4.078 4.147 4.67c1.427 1.642 2.987 3.272 4.471 5.09l4.636 5.573c1.621 1.878 3.168 3.917 4.77 5.977 1.585 2.074 3.279 4.119 4.871 6.312l4.851 6.658a71.25 71.25 0 0 1 2.41 3.434l2.381 3.506c.798 1.168 1.601 2.342 2.404 3.52.802 1.178 1.537 2.41 2.312 3.615 1.522 2.432 3.1 4.828 4.596 7.277l4.369 7.41 1.09 1.838 1.021 1.877 2.038 3.727c2.795 4.889 5.154 9.93 7.623 14.666l3.329 7.152 1.614 3.453 1.459 3.43c.965 2.246 1.903 4.434 2.812 6.547l2.427 6.199 1.142 2.912c.352.926.788 1.928 1.022 2.699l1.574 4.6 1.413 4.016 1.574 4.697 1.395 4.184a4.927 4.927 0 0 0 6.515 3.008z" fill="#faa"></path><path d="M459.808 348.748l4.324.59 5.063.882 5.747.987c1.758.292 3.579.716 5.472 1.112l54.404-111.282-7.993-1.248c-1.796-.267-3.564-.574-5.325-.794l-5.218-.632-9.989-1.187-9.358-.802c-3-.23-5.861-.533-8.6-.663l-7.765-.382-6.818-.322-5.792-.093-6.222-.075a4.925 4.925 0 0 0-4.979 4.695l-4.961 103.577a4.926 4.926 0 0 0 4.25 5.121l3.76.516zM606.027 405.781c1.462 1.063 2.848 2.071 4.15 3.02l3.654 2.617c.489.336 1.296.948 1.955 1.438l1.939 1.448 3.533 2.636a4.925 4.925 0 0 0 7.065-1.25l71.03-108.196a4.923 4.923 0 0 0-1.661-6.98l-3.823-2.193-2.101-1.205-2.511-1.421-6.542-3.604c-2.336-1.273-4.823-2.627-7.443-4.056a39845.12 39845.12 0 0 1-7.86-3.939c-2.75-1.342-5.556-2.835-8.565-4.19l-9.273-4.25c-3.161-1.492-6.497-2.847-9.883-4.269-3.4-1.392-6.821-2.914-10.394-4.257l-2.736-1.036-30.642 132.998c1.694 1.064 3.29 2.192 4.862 3.21l5.246 3.479z" fill="#ffe680"></path><path d="M364.434 348.206c1.372-.181 2.719-.405 4.064-.547l3.984-.405 7.619-.791 7.142-.479 3.353-.229c1.09-.073 2.182-.166 3.118-.167l5.479-.143 4.8-.152 5.025-.033 4.408-.024a4.925 4.925 0 0 0 4.886-5.254l-6.394-97.57a4.925 4.925 0 0 0-5.53-4.571l-4.373.552-5.089.648-7.083 1.05-8.034 1.224c-1.448.204-2.781.475-4.18.739l-4.279.817-9.076 1.754-9.642 2.196-5.019 1.154c-1.692.396-3.389.88-5.11 1.325l-10.51 2.8-10.757 3.243c-1.812.561-3.643 1.09-5.463 1.689l-5.467 1.865-5.5 1.885c-1.84.626-3.683 1.255-5.501 1.972l-10.963 4.185c-3.643 1.426-7.226 3.006-10.817 4.501-1.79.763-3.585 1.499-5.354 2.282l-5.253 2.425-5.201 2.409c-1.725.798-3.443 1.584-5.113 2.451l-9.919 5.008c-3.257 1.633-6.361 3.435-9.444 5.094-3.069 1.69-6.087 3.302-8.934 5.039l-8.342 4.949c-2.702 1.576-5.208 3.278-7.664 4.816l-6.999 4.487-6.178 4.24-5.418 3.731c-1.672 1.153-3.151 2.296-4.514 3.284l-4.7 3.47a4.923 4.923 0 0 0-1.141 6.735l40.515 59.566a4.922 4.922 0 0 0 6.494 1.524l3.632-2.049c1.209-.669 2.517-1.459 3.994-2.228 1.476-.77 3.072-1.6 4.777-2.488l5.417-2.832 6.107-2.928c2.138-.996 4.307-2.137 6.646-3.132l7.189-3.155c2.443-1.125 5.031-2.108 7.649-3.158 2.632-1.02 5.268-2.174 8.029-3.149l8.374-3.018c1.403-.533 2.847-.984 4.294-1.446l4.353-1.401 4.378-1.416c1.472-.447 2.965-.847 4.448-1.275 2.979-.824 5.938-1.738 8.938-2.504l8.994-2.225c1.484-.395 2.99-.704 4.489-1.013l4.475-.942 4.429-.94c1.473-.294 2.954-.521 4.415-.784l8.648-1.501 8.399-1.16z" fill="#aef"></path><path d="M88.175 425.22l-3.199 4.526-3.216 4.559c-1.071 1.527-2.073 3.111-3.115 4.669-2.054 3.137-4.156 6.25-6.168 9.422l-5.887 9.585-1.46 2.386-1.386 2.425-2.754 4.822c-3.74 6.353-6.989 12.847-10.291 19.015l-4.529 9.266-2.178 4.488-1.999 4.441-3.817 8.504-3.329 8.045c-1.046 2.586-2.103 5.033-3.004 7.408l-2.527 6.752-2.212 5.93-1.734 5.084-1.741 5.168a4.924 4.924 0 0 0 2.91 6.172l37.71 14.457c2.4.92 5.103-.154 6.212-2.473l1.962-4.102 2.073-4.311 2.596-5.004c.924-1.781 1.906-3.68 2.942-5.68 1.044-1.994 2.246-4.039 3.439-6.199l3.77-6.705 4.252-7.043 2.21-3.668c.785-1.215 1.58-2.443 2.383-3.688l4.916-7.59c3.546-5.02 7.014-10.307 10.933-15.406l2.882-3.879 1.445-1.947 1.514-1.904 6.064-7.633c2.061-2.516 4.2-4.967 6.279-7.439 1.054-1.227 2.066-2.479 3.145-3.672l3.228-3.562 3.195-3.531a87.627 87.627 0 0 1 3.211-3.444l6.411-6.64c2.101-2.177 4.294-4.197 6.364-6.239 2.086-2.027 4.104-4.027 6.182-5.86l5.956-5.42c1.908-1.761 3.874-3.333 5.69-4.911l5.246-4.468c1.636-1.295 3.188-2.523 4.646-3.679a8833.53 8833.53 0 0 0 4.062-3.235c.576-.476 1.356-1.046 2.015-1.547l1.933-1.458 3.518-2.655a4.925 4.925 0 0 0 .774-7.133l-42.935-50.299a4.925 4.925 0 0 0-7.166-.355l-3.174 3.058-1.744 1.679c-.621.603-1.212 1.152-1.982 1.939l-4.764 4.808-5.392 5.47-5.557 6.019c-1.912 2.113-3.974 4.242-5.969 6.576l-6.202 7.19c-2.155 2.438-4.24 5.057-6.385 7.714-2.129 2.671-4.373 5.336-6.514 8.16-2.135 2.824-4.305 5.695-6.501 8.603a110.88 110.88 0 0 0-3.237 4.439z" fill="#acf"></path><path d="M422.481 641.175c8.947 3.837 18.425 5.655 27.756 5.655 23.422 0 45.931-11.447 56.911-31.148 2.115-3.792 3.751-7.979 4.816-11.922l64.03-243.778 24.384-92.84 15.106-57.51c1.758-6.694-4.311-11.254-10.4-11.254-3.566 0-7.138 1.563-9.152 5.175l-30.74 55.156-45.349 81.366-126.425 226.833c-15.354 27.548-2.342 60.8 29.063 74.267zm30.103-78.505c17.134 0 31.024 12.184 31.024 27.214 0 15.028-13.89 27.213-31.024 27.213s-31.024-12.185-31.024-27.213c0-15.032 13.89-27.214 31.024-27.214z" fill="#c8beb7"></path></g><path d="M162.34 388.947s-28.578 21.072 77.936-51.18c100.348-47.597 110.002-37.514 193.704-52.623 156.232 11.955 149.82 11.584 229.97 40.11C766.342 377.8 737 373.43 819.015 436.16c45.749 56.372 116.055 162.464 129.852 238.558" fill="none"></path><path d="M143.819 387.402c41.944-23.397 90.572-49.711 130.051-69.877 78.88-22.33 152.359-43.572 238.112-32.992 53.758 12.27 99.083 23.073 151.968 40.721 32.663 13.686 72.425 39.615 101.309 65.643 47.155 31.999 81.523 66.746 126.98 121.169 5.536 9.45 15.426 18.814 18.145 30.472" fill="none"></path><text style="line-height:1.25;-inkscape-font-specification:'Calibri, Normal';font-variant-ligatures:normal;font-variant-caps:normal;font-variant-numeric:normal;font-feature-settings:normal;text-align:start" x="132.847" y="561.198" transform="scale(.9246 1.08155)" font-weight="400" font-size="163.598" font-family="Calibri" letter-spacing="0" word-spacing="0" stroke-width="4.09"><tspan x="132.847" y="561.198" style="-inkscape-font-specification:'Calibri, Light';font-variant-ligatures:normal;font-variant-caps:normal;font-variant-numeric:normal;font-feature-settings:normal;text-align:start" font-weight="300"><tspan style="-inkscape-font-specification:'Century Gothic, Bold';font-variant-ligatures:normal;font-variant-caps:normal;font-variant-numeric:normal;font-feature-settings:normal;text-align:start" font-weight="700" font-size="163.32" font-family="Century Gothic" letter-spacing="-12.643" fill="#04a">news </tspan><tspan style="-inkscape-font-specification:'Century Gothic, Bold Italic';font-variant-ligatures:normal;font-variant-caps:normal;font-variant-numeric:normal;font-feature-settings:normal;text-align:start" font-style="italic" font-weight="700" font-size="163.603" font-family="Century Gothic" fill="#d40000">rush</tspan></tspan></text><path d="M245.775 449.393c-4.464-5.012-41.458-60.774-41.458-62.491 0-2.204 7.066-7.701 25.141-19.56 51.342-33.684 111.885-57.424 171.71-67.332 22.996-3.808 26.052-4.085 28.125-2.544 1.567 1.165 2.256 8.13 5.137 51.925 2.636 40.067 3.056 50.906 2.02 52.155-.945 1.138-3.593 1.576-9.522 1.576-10.99 0-34.502 1.895-47.691 3.844-38.531 5.693-71.577 16.14-108.19 34.204-11.254 5.552-21.169 10.095-22.033 10.095-.865 0-2.322-.843-3.24-1.872z" fill="#87deaa"></path></g></svg><svg width="18" height="18" viewBox="3.5 0.5 18 18" id="magnifier" y="1017"><circle fill="none" stroke="#FFF" stroke-width="2" stroke-miterlimit="10" cx="10.5" cy="7.5" r="6"></circle><path fill="none" stroke="#FFF" stroke-width="2" stroke-miterlimit="10" d="M20.531 17.531L14.5 11.5"></path></svg></svg>