<?xml version="1.0" encoding="UTF-8" standalone="no"?>
<!-- Created with Inkscape (http://www.inkscape.org/) -->

<svg
   xmlns:dc="http://purl.org/dc/elements/1.1/"
   xmlns:cc="http://creativecommons.org/ns#"
   xmlns:rdf="http://www.w3.org/1999/02/22-rdf-syntax-ns#"
   xmlns:svg="http://www.w3.org/2000/svg"
   xmlns="http://www.w3.org/2000/svg"
   xmlns:sodipodi="http://sodipodi.sourceforge.net/DTD/sodipodi-0.dtd"
   xmlns:inkscape="http://www.inkscape.org/namespaces/inkscape"
   width="17.634455mm"
   height="17.032642mm"
   viewBox="0 0 17.634455 17.032642"
   version="1.1"
   id="svg6070"
   inkscape:version="0.92.3 (2405546, 2018-03-11)">
  <defs
     id="defs6064" />
  <sodipodi:namedview
     id="base"
     pagecolor="#ffffff"
     bordercolor="#666666"
     borderopacity="1.0"
     inkscape:pageopacity="0.0"
     inkscape:pageshadow="2"
     inkscape:zoom="2.8"
     inkscape:cx="-39.362819"
     inkscape:cy="21.961799"
     inkscape:document-units="mm"
     inkscape:current-layer="layer1"
     showgrid="false"
     fit-margin-top="0"
     fit-margin-left="0"
     fit-margin-right="0"
     fit-margin-bottom="0"
     inkscape:window-width="1366"
     inkscape:window-height="715"
     inkscape:window-x="-8"
     inkscape:window-y="-8"
     inkscape:window-maximized="1" />
  <metadata
     id="metadata6067">
    <rdf:RDF>
      <cc:Work
         rdf:about="">
        <dc:format>image/svg+xml</dc:format>
        <dc:type
           rdf:resource="http://purl.org/dc/dcmitype/StillImage" />
        <dc:title></dc:title>
      </cc:Work>
    </rdf:RDF>
  </metadata>
  <g
     inkscape:label="Layer 1"
     inkscape:groupmode="layer"
     id="layer1"
     transform="translate(-99.284215,-111.59072)">
    <path
       d="m 109.33468,128.60369 c -0.88503,-0.0717 -1.6854,-0.33787 -2.51936,-0.83794 -0.11483,-0.0706 -0.23178,-0.14208 -0.35005,-0.22251 -1.79096,-1.18375 -2.72865,-2.67996 -2.50878,-4.00129 0.002,-0.0119 0.004,-0.0233 0.006,-0.0352 0.24448,-0.0548 0.5297,-0.10187 0.77867,-0.0823 0.0368,0.003 0.0725,0.007 0.10822,0.0132 0.59875,0.10371 0.89058,0.694 1.22899,1.37848 0.25955,0.52361 0.55377,1.11839 1.03901,1.57771 0.0476,0.0458 0.0974,0.0886 0.14896,0.1307 0.47467,0.39185 1.06945,0.6178 1.76822,0.67284 0.99827,0.0807 2.21006,-0.20347 3.41047,-0.7964 0.13388,-0.0659 0.263,-0.13467 0.38656,-0.20267 l 0.19923,-0.11139 -0.1225,-0.19447 c -0.23601,-0.36962 -0.57362,-0.70749 -0.89958,-1.03478 -0.0352,-0.0344 -0.0706,-0.068 -0.10451,-0.10478 1.3462,-0.59055 2.1971,-2.21668 2.34738,-4.48919 0.005,-0.077 0.009,-0.15107 0.0122,-0.22621 0.0151,7.9e-4 0.0296,0.002 0.0458,0.003 0.42333,0.0336 0.72734,0.22145 0.95726,0.59081 0.17251,0.28099 0.31168,0.6813 0.42413,1.2274 0.11139,0.53499 0.18468,1.14353 0.25585,1.73223 0.16457,1.38113 0.32173,2.68949 0.97182,3.1406 -1.90421,0.77576 -3.4507,1.35044 -5.04455,1.66318 -0.12965,0.0246 -0.26061,0.0503 -0.39158,0.0725 -0.83635,0.14314 -1.51739,0.186 -2.14736,0.13626 z"
       id="path5078"
       inkscape:connector-curvature="0"
       style="fill:#0d9346;stroke-width:0.26458332" />
    <path
       d="m 111.57914,124.41719 c -0.20479,-0.22199 -0.41011,-0.47916 -0.50536,-0.73872 -0.20716,-0.56647 0.15531,-1.10834 0.57521,-1.73963 0.32491,-0.48737 0.69347,-1.04061 0.84455,-1.69096 0.014,-0.0661 0.027,-0.12938 0.0381,-0.19605 0.24738,-1.49119 -0.76121,-3.14907 -2.69743,-4.4286 -0.12144,-0.0823 -0.24553,-0.15981 -0.36671,-0.23177 l -0.19685,-0.1196 -0.10716,0.20268 c -0.2024,0.39052 -0.32596,0.8501 -0.44661,1.29354 -0.0138,0.049 -0.0257,0.0945 -0.0386,0.14314 -0.45456,-0.33575 -1.00939,-0.53234 -1.65312,-0.58261 -0.99695,-0.0807 -2.20848,0.20003 -3.40942,0.79058 -0.068,0.0357 -0.13441,0.0701 -0.20003,0.10371 -0.20081,-0.39899 -0.1942,-0.76147 0.0185,-1.15464 0.15557,-0.29236 0.43497,-0.61568 0.85354,-0.98848 0.40931,-0.36433 0.90223,-0.73158 1.37716,-1.08665 1.1094,-0.8292 2.16138,-1.6166 2.23493,-2.40241 1.46527,1.14326 2.83581,2.25451 3.94891,3.52451 0.0871,0.10081 0.17462,0.20241 0.25982,0.30586 1.27159,1.51791 1.75551,2.74981 1.72826,4.39711 -0.002,0.13626 -0.008,0.27596 -0.0183,0.41857 -0.13944,2.13863 -0.96282,3.6965 -2.20134,4.16745 -0.0122,0.005 -0.0249,0.009 -0.0381,0.013 z"
       id="path5082"
       inkscape:connector-curvature="0"
       style="fill:#1e6fb8;stroke-width:0.26458332" />
    <path
       d="m 105.15902,128.58543 c -0.28813,-0.0225 -0.62918,-0.1008 -1.04272,-0.23627 -0.52123,-0.1733 -1.08611,-0.41592 -1.63248,-0.65087 -0.93027,-0.39873 -1.80922,-0.7755 -2.492638,-0.83159 -0.282839,-0.0222 -0.516202,0.0106 -0.706967,0.10292 0.265907,-1.90553 0.534194,-3.59119 1.077115,-5.18874 0.0434,-0.12726 0.0897,-0.25506 0.13653,-0.38232 0.67971,-1.85156 1.50442,-2.88767 2.94137,-3.69597 0.11906,-0.0653 0.24157,-0.13255 0.3691,-0.195 1.13056,-0.55668 2.26218,-0.82153 3.18188,-0.74956 0.61065,0.0503 1.12395,0.24209 1.52823,0.5752 0.009,0.008 0.0206,0.0161 0.0302,0.0241 -0.0886,0.27887 -0.21034,0.58976 -0.38841,0.80301 -0.38153,0.47281 -1.00515,0.43365 -1.79361,0.381 -0.58367,-0.0376 -1.24486,-0.0799 -1.88383,0.11033 -0.0661,0.022 -0.13044,0.0426 -0.19421,0.0669 -1.42107,0.54028 -2.32462,2.19631 -2.4802,4.54343 -0.01,0.14922 -0.0148,0.2958 -0.0169,0.43815 l -0.005,0.23018 0.23071,-0.01 c 0.44106,-0.0193 0.90488,-0.14393 1.35388,-0.26458 0.0455,-0.0122 0.0915,-0.0243 0.13758,-0.036 -0.16113,1.45362 0.84296,3.04615 2.71701,4.28308 0.0619,0.0408 0.12356,0.0828 0.1852,0.12091 -0.24632,0.37597 -0.56462,0.55351 -1.01097,0.56753 -0.0783,0.003 -0.15769,2.7e-4 -0.24103,-0.006 z"
       id="path5086"
       inkscape:connector-curvature="0"
       style="fill:#ee582d;stroke-width:0.26458332" />
  </g>
</svg>
