<?xml version="1.0" encoding="UTF-8" standalone="no"?>
<!-- Created with Inkscape (http://www.inkscape.org/) -->

<svg
   xmlns:dc="http://purl.org/dc/elements/1.1/"
   xmlns:cc="http://creativecommons.org/ns#"
   xmlns:rdf="http://www.w3.org/1999/02/22-rdf-syntax-ns#"
   xmlns:svg="http://www.w3.org/2000/svg"
   xmlns="http://www.w3.org/2000/svg"
   xmlns:sodipodi="http://sodipodi.sourceforge.net/DTD/sodipodi-0.dtd"
   xmlns:inkscape="http://www.inkscape.org/namespaces/inkscape"
   width="18.293934mm"
   height="20.062111mm"
   viewBox="0 0 18.293934 20.062111"
   version="1.1"
   id="svg5872"
   inkscape:version="0.92.3 (2405546, 2018-03-11)"
   sodipodi:docname="partner2.svg">
  <defs
     id="defs5866">
    <linearGradient
       gradientTransform="matrix(0.26458333,0,0,0.26458333,7.9573642,-2.6851461)"
       id="SVGID_6_"
       gradientUnits="userSpaceOnUse"
       x1="392.16989"
       y1="468.71881"
       x2="333.29489"
       y2="486.09369">
      <stop
         offset="0"
         style="stop-color:#00C1F7"
         id="stop5118" />
      <stop
         offset="0.7033"
         style="stop-color:#1E6FB8"
         id="stop5120" />
    </linearGradient>
    <linearGradient
       gradientTransform="matrix(0.26458333,0,0,0.26458333,7.9573642,-2.6851461)"
       id="SVGID_7_"
       gradientUnits="userSpaceOnUse"
       x1="330.20801"
       y1="496.74219"
       x2="395.9238"
       y2="496.74219">
      <stop
         offset="0"
         style="stop-color:#F19319"
         id="stop5127" />
      <stop
         offset="0.4835"
         style="stop-color:#EE582D"
         id="stop5129" />
      <stop
         offset="1"
         style="stop-color:#E63D2D"
         id="stop5131" />
    </linearGradient>
  </defs>
  <sodipodi:namedview
     id="base"
     pagecolor="#ffffff"
     bordercolor="#666666"
     borderopacity="1.0"
     inkscape:pageopacity="0.0"
     inkscape:pageshadow="2"
     inkscape:zoom="5.6568543"
     inkscape:cx="58.338789"
     inkscape:cy="42.33011"
     inkscape:document-units="mm"
     inkscape:current-layer="layer1"
     showgrid="false"
     fit-margin-top="0"
     fit-margin-left="0"
     fit-margin-right="0"
     fit-margin-bottom="0"
     inkscape:window-width="1366"
     inkscape:window-height="715"
     inkscape:window-x="-8"
     inkscape:window-y="-8"
     inkscape:window-maximized="1" />
  <metadata
     id="metadata5869">
    <rdf:RDF>
      <cc:Work
         rdf:about="">
        <dc:format>image/svg+xml</dc:format>
        <dc:type
           rdf:resource="http://purl.org/dc/dcmitype/StillImage" />
        <dc:title></dc:title>
      </cc:Work>
    </rdf:RDF>
  </metadata>
  <g
     inkscape:label="Layer 1"
     inkscape:groupmode="layer"
     id="layer1"
     transform="translate(-94.418678,-116.12416)">
    <path
       d="m 104.99939,131.00669 c -0.59902,0 -1.11549,-0.14817 -1.5367,-0.44212 0.0675,-0.27913 0.15901,-0.5707 0.30532,-0.77681 0.31063,-0.45668 0.85434,-0.48737 1.71345,-0.50192 0.58922,-0.008 1.2565,-0.0183 1.88727,-0.26326 l 0.41196,-0.15849 -0.32782,-0.29501 c -0.23389,-0.20796 -0.51912,-0.4863 -0.65061,-0.77073 -0.23945,-0.52255 0.0564,-1.05383 0.43127,-1.72931 0.28892,-0.51541 0.61224,-1.10067 0.71226,-1.77271 l 0.0656,-0.43339 -0.41699,0.13573 c -0.2585,0.086 -0.59266,0.18336 -0.88159,0.18336 -0.0341,0 -0.0712,-10e-4 -0.10477,-0.004 -0.57733,-0.0534 -0.89483,-0.58076 -1.29408,-1.24989 -0.30375,-0.50536 -0.64665,-1.07871 -1.17317,-1.50257 -0.0521,-0.0434 -0.10768,-0.0839 -0.16245,-0.12435 -0.51462,-0.35772 -1.13586,-0.53711 -1.84785,-0.53711 -1.01071,0 -2.20451,0.37915 -3.363649,1.06945 -0.129382,0.0791 -0.253471,0.1569 -0.373857,0.23839 -1.309687,0.88291 -2.106348,1.95553 -2.659856,3.62056 -0.05159,-0.24395 -0.100806,-0.4916 -0.151342,-0.73555 -0.276754,-1.37768 -0.520964,-2.58762 -1.163108,-3.03874 1.838325,-0.92445 3.257815,-1.58167 4.800071,-2.01374 l 0.0717,-0.0222 0.05001,-0.0521 c 0.377032,-0.39396 0.837931,-0.80063 1.283761,-1.19142 1.0496,-0.92419 1.97432,-1.73751 2.04761,-2.5146 1.51791,1.00066 2.94243,1.98094 4.13279,3.13823 l 0.0516,0.0524 0.0725,0.0172 c 0.52943,0.12912 1.11231,0.32412 1.67508,0.51462 0.96308,0.32517 1.87351,0.63129 2.56751,0.63129 0.24977,0 0.46091,-0.0389 0.63553,-0.11985 -0.11059,1.87774 -0.2458,3.54885 -0.65114,5.15276 -0.0347,0.1307 -0.0688,0.2622 -0.10477,0.39237 -0.52811,1.88728 -1.26074,2.9763 -2.61594,3.8862 -0.11192,0.073 -0.22728,0.14817 -0.34819,0.22199 -1.07633,0.64161 -2.17223,0.99589 -3.08742,0.99589 z"
       id="path5123"
       inkscape:connector-curvature="0"
       style="fill:url(#SVGID_6_);stroke-width:0.26458332" />
    <path
       d="m 104.45911,136.18591 c -1.51898,-0.99933 -2.94191,-1.98358 -4.12936,-3.13822 l -0.0545,-0.0503 -0.0699,-0.0172 c -0.532871,-0.12859 -1.115219,-0.32597 -1.678516,-0.517 -0.963084,-0.32332 -1.872986,-0.63103 -2.566988,-0.63103 -0.249767,0 -0.461433,0.0386 -0.635,0.11986 0.110596,-1.88172 0.245798,-3.55309 0.651933,-5.15329 0.03281,-0.12965 0.06747,-0.25982 0.103188,-0.39 0.528637,-1.88674 1.261269,-2.9755 2.616994,-3.88831 0.112183,-0.0759 0.227541,-0.14923 0.349514,-0.22278 1.074475,-0.64162 2.169585,-0.99431 3.083715,-0.99431 0.60008,0 1.11655,0.14949 1.53803,0.44106 5.3e-4,5.3e-4 10e-4,5.3e-4 0.002,0.001 -0.0675,0.28019 -0.15611,0.5678 -0.30666,0.77761 -0.31088,0.4572 -0.85434,0.48763 -1.71317,0.50033 -0.58923,0.008 -1.25704,0.0185 -1.888336,0.26352 l -0.411427,0.16113 0.328877,0.29237 c 0.233362,0.20981 0.518056,0.48577 0.651936,0.77205 0.23892,0.52097 -0.0582,1.05516 -0.434184,1.72879 -0.287867,0.517 -0.611981,1.10199 -0.711994,1.77403 l -0.06535,0.43154 0.416984,-0.136 c 0.258498,-0.086 0.593194,-0.18177 0.883174,-0.18177 0.037,0 0.0707,0.001 0.10425,0.005 0.57785,0.0513 0.89429,0.58076 1.29355,1.24804 0.30374,0.50747 0.64717,1.07924 1.17422,1.50495 0.0534,0.041 0.1061,0.0828 0.16166,0.12118 0.51382,0.35772 1.134,0.53922 1.84626,0.53922 1.01177,0 2.20663,-0.38259 3.36577,-1.075 0.12885,-0.0765 0.25188,-0.15584 0.37041,-0.23707 1.31048,-0.87815 2.1082,-1.94998 2.6625,-3.61447 0.0516,0.24448 0.10319,0.49239 0.15187,0.73686 0.27623,1.37637 0.52044,2.58525 1.16205,3.03583 -1.79308,0.89985 -3.2639,1.58036 -4.79954,2.01401 l -0.072,0.0198 -0.0497,0.0545 c -0.3765,0.39317 -0.83714,0.79693 -1.28323,1.18957 -1.05145,0.92631 -1.97723,1.73831 -2.04866,2.51486 z"
       id="path5134"
       inkscape:connector-curvature="0"
       style="fill:url(#SVGID_7_);stroke-width:0.26458332" />
  </g>
</svg>
